<?xml version="1.0" encoding="utf-8"?>
<!-- Generator: Adobe Illustrator 25.2.0, SVG Export Plug-In . SVG Version: 6.00 Build 0)  -->
<svg version="1.0" xmlns="http://www.w3.org/2000/svg" xmlns:xlink="http://www.w3.org/1999/xlink" x="0px" y="0px" width="750px"
	 height="500px" viewBox="0 0 750 500" enable-background="new 0 0 750 500" xml:space="preserve">
<g id="Background_Complete">
</g>
<g id="Background_Simple" display="none">
	<path display="inline" fill="#F5F5F5" d="M703.5,267.5l-2-1.9c-16.9-15.9-41-21.7-62.7-14.2c-2.8,1-5.5,2.1-8.1,3.5
		c-18.9,9.8-32.2,29.8-34.1,51.3c-1.1,12.6,1.3,26.1-4.3,37.4c-7.3,14.7-25.1,20-40.9,23.8c-15.9,3.8-33.6,9.2-40.8,23.9
		c-4.5,9.2-3.7,20.4-0.4,30.2c8.6,26,33.5,44.5,60.1,49.8c26.6,5.3,54.4-1.2,78.5-13.4c33.8-17.1,62.5-46.3,74.5-82.5
		C735.3,339.2,729,296,703.5,267.5z"/>
	<path display="inline" fill="#F5F5F5" d="M51.2,202.9L53,205c14.7,18,37.9,26.8,60.4,22.1c2.9-0.6,5.7-1.4,8.5-2.4
		c20-7.3,35.8-25.5,40.4-46.5c2.7-12.4,2-26.1,9-36.6c9.1-13.7,27.4-16.6,43.6-18.4c16.2-1.8,34.5-4.8,43.6-18.5
		c5.7-8.6,6.3-19.7,4.3-29.9c-5.3-26.9-27.5-48.4-53.2-57.1C183.9,9.1,155.5,12,130,21C94.3,33.6,62.1,58.9,45.5,93.3
		C28.9,127.7,29.6,171.3,51.2,202.9z"/>
	<circle display="inline" fill="#F5F5F5" cx="634.6" cy="113.9" r="73.7"/>
</g>
<g id="Floor">
	<g>
		<path fill="#263238" d="M714.7,478.8c0,0.1-152.1,0.3-339.7,0.3c-187.6,0-339.7-0.1-339.7-0.3c0-0.1,152.1-0.3,339.7-0.3
			C562.6,478.5,714.7,478.6,714.7,478.8z"/>
	</g>
</g>
<g id="Plant">
	<g>
		<g>
			<path fill="#FF725E" d="M118.3,317.8c-20.3-20.7-52-29.5-80.1-22c24.3,16.3,51.7,25.1,81,25.3"/>
		</g>
		<g>
			<g>
				<path fill="#FF725E" d="M91.1,221.7c3.3-23.6-5.8-50.1-23.5-67.3C67.1,177.8,76.9,204.1,91.1,221.7"/>
			</g>
			<g>
				<path fill="#FF725E" d="M105.3,266.2C92.7,242.2,72,222.4,47.4,211c7.4,27.2,30.6,49.4,58.1,55.5"/>
			</g>
			<g>
				<path fill="#FF725E" d="M108.2,274.8c-14.2,0.4-28.7-0.1-42.4-3.7c-13.8-3.6-27-10.7-36.1-21.6c27.7,0,55.4,8.5,78.4,23.9"/>
			</g>
			<g>
				<path fill="#FF725E" d="M101,246.5c7.2-27.1,19.2-45.9,40.5-61c1.6,13.2-1.6,26.9-9,38C125.1,234.5,113.7,242.9,101,246.5"/>
			</g>
			<g>
				<path fill="#FF725E" d="M154.7,293.3c0.4-15.8-9.8-31.2-24.4-37.2C131.5,270.1,142.5,286.3,154.7,293.3"/>
			</g>
			<g>
				<path fill="#FF725E" d="M161.5,270.4c1.6-22.6,17.7-43.6,39.2-51C195.8,242.1,182.7,260.9,161.5,270.4"/>
			</g>
			<g>
				<path fill="#FF725E" d="M151.3,311c5-7.2,13.2-11.7,21.7-13.9c8.5-2.2,17.3-2.4,26.1-2.6c-11.8,13-29.6,20.4-47.2,19.6"/>
			</g>
			<g>
				<path fill="#FF725E" d="M141.1,368.7c15.8-4.9,33.4-3.6,48.4,3.5c14.9,7.1,27.1,19.9,33.3,35.2
					C193.1,401.8,163.8,388.6,141.1,368.7"/>
			</g>
			<g>
				<path fill="#FF725E" d="M108.5,348.7c4.9,14.6,4,32.2-7,44.7C97.1,378.5,99.7,361.6,108.5,348.7"/>
			</g>
			<g>
				<path fill="#FF725E" d="M89.3,340.6c-1.4,18.7-13.4,36.3-30.3,44.5c-0.8,0.4-1.8,0.8-2.7,0.4c-1.3-0.5-1.5-2.4-1.3-3.8
					C57.2,363,71,345,89.3,340.6"/>
			</g>
			<g>
				<path fill="#FF725E" d="M76.7,338.7c-8.3,9-20.5,14.4-32.8,14.4c-12.3,0.1-24.5-5.2-32.9-14.1C31.9,336.7,56,335.2,76.7,338.7"
					/>
			</g>
			<g>
				<g>
					<g>
						<path fill="#263238" d="M73.6,171.8c0,0,0.1,0.2,0.2,0.6c0.2,0.4,0.4,1,0.6,1.8c0.6,1.6,1.4,3.9,2.5,6.8
							c1.1,2.9,2.4,6.5,3.9,10.7c0.8,2.1,1.6,4.3,2.4,6.7c0.8,2.4,1.7,4.9,2.6,7.6c3.7,10.6,7.8,23.3,12.2,37.4
							c4.4,14.2,8.9,29.8,13.4,46.3c4.4,16.5,8.4,32.3,11.7,46.7c3.3,14.4,6.1,27.5,8.1,38.5c0.5,2.7,1,5.4,1.5,7.8
							c0.4,2.5,0.8,4.8,1.2,7c0.8,4.4,1.4,8.2,1.8,11.3c0.5,3.1,0.8,5.5,1.1,7.1c0.1,0.8,0.2,1.4,0.3,1.9c0.1,0.4,0.1,0.6,0.1,0.6
							c0,0,0-0.2,0-0.6c-0.1-0.5-0.1-1.1-0.2-1.9c-0.2-1.7-0.5-4.1-0.9-7.2c-0.4-3.1-1-6.9-1.7-11.3c-0.4-2.2-0.7-4.5-1.1-7
							c-0.5-2.5-0.9-5.1-1.4-7.9c-2-11-4.7-24.1-7.9-38.6c-3.3-14.4-7.2-30.3-11.7-46.8c-4.5-16.5-9.1-32.1-13.5-46.3
							c-4.5-14.1-8.6-26.8-12.4-37.4c-0.9-2.6-1.8-5.2-2.7-7.5c-0.9-2.4-1.7-4.6-2.5-6.7c-1.5-4.2-2.9-7.8-4-10.7
							c-1.1-2.9-2-5.1-2.7-6.7c-0.3-0.7-0.5-1.3-0.7-1.7C73.7,172,73.6,171.8,73.6,171.8z"/>
					</g>
				</g>
				<g>
					<g>
						<path fill="#263238" d="M188.3,231.5c0,0-0.1,0.1-0.4,0.3c-0.3,0.3-0.6,0.6-1,1c-0.9,0.9-2.1,2.3-3.7,4.2
							c-3.2,3.7-7.6,9.1-12.3,16.4c-4.7,7.3-9.5,16.5-12.9,27.5c-3.4,10.9-5.6,23.4-7.7,36.4c-4.2,26-9.5,49.3-13.2,66.2
							c-1.9,8.4-3.4,15.2-4.5,20c-0.5,2.3-0.9,4.1-1.2,5.4c-0.1,0.6-0.2,1.1-0.3,1.4c-0.1,0.3-0.1,0.5-0.1,0.5c0,0,0.1-0.2,0.2-0.5
							c0.1-0.4,0.2-0.8,0.4-1.4c0.3-1.3,0.8-3.1,1.3-5.4c1.1-4.8,2.8-11.5,4.8-19.9c3.9-16.8,9.2-40.1,13.5-66.2
							c2.1-13,4.2-25.4,7.6-36.3c3.3-10.9,8-20.1,12.6-27.4c4.6-7.3,9-12.8,12.1-16.5c1.5-1.9,2.8-3.3,3.6-4.2
							c0.4-0.5,0.7-0.8,0.9-1.1C188.2,231.6,188.3,231.5,188.3,231.5z"/>
					</g>
				</g>
				<g>
					<g>
						<path fill="#263238" d="M70.5,337.8c0,0,0.3,0.1,0.8,0.1c0.6,0.1,1.3,0.1,2.2,0.2c0.5,0,1,0.1,1.6,0.2
							c0.6,0.1,1.2,0.2,1.8,0.3c1.3,0.2,2.8,0.4,4.5,0.8c0.8,0.2,1.7,0.3,2.6,0.5c0.9,0.2,1.8,0.5,2.8,0.7c1.9,0.4,3.9,1.1,6.1,1.8
							c4.2,1.5,8.7,3.4,13.2,5.8c4.5,2.5,8.5,5.4,11.9,8.2c1.6,1.5,3.2,2.9,4.5,4.4c1.4,1.4,2.5,2.8,3.6,4.2
							c1.1,1.3,1.9,2.6,2.7,3.7c0.8,1.1,1.4,2.1,1.8,2.9c0.4,0.7,0.8,1.4,1.1,1.9c0.3,0.4,0.4,0.6,0.4,0.6c0,0-0.1-0.3-0.3-0.7
							c-0.3-0.5-0.6-1.2-1-1.9c-0.4-0.8-1-1.9-1.7-3c-0.8-1.1-1.5-2.5-2.6-3.8c-1-1.3-2.2-2.8-3.6-4.3c-1.3-1.5-2.9-2.9-4.5-4.5
							c-3.4-2.9-7.4-5.9-11.9-8.4c-4.6-2.5-9.1-4.4-13.4-5.8c-2.2-0.6-4.2-1.3-6.1-1.7c-1-0.2-1.9-0.4-2.8-0.7
							c-0.9-0.2-1.8-0.3-2.6-0.5c-1.7-0.3-3.2-0.5-4.5-0.6c-0.7-0.1-1.3-0.1-1.9-0.2c-0.6,0-1.1-0.1-1.6-0.1c-0.9,0-1.6-0.1-2.2-0.1
							C70.7,337.8,70.5,337.8,70.5,337.8z"/>
					</g>
				</g>
			</g>
			<g>
				<g>
					<path fill="#263238" d="M64.5,232c0,0,0.5,0.6,1.5,1.4c1.1,1,2.6,2.2,4.3,3.7c3.7,3.1,8.7,7.4,14.4,12.1
						c5.6,4.7,10.8,8.9,14.5,11.9c1.8,1.4,3.3,2.6,4.5,3.5c1.1,0.8,1.7,1.3,1.7,1.2c0,0-0.5-0.6-1.5-1.5c-1.1-1-2.6-2.2-4.3-3.7
						c-3.7-3.1-8.7-7.4-14.4-12.1c-5.6-4.7-10.8-8.9-14.5-11.9c-1.8-1.4-3.3-2.6-4.5-3.5C65.2,232.4,64.6,232,64.5,232z"/>
				</g>
			</g>
			<g>
				<g>
					<path fill="#263238" d="M59.4,259.6c-0.1,0.2,10.9,3.6,24.5,7.6c13.6,4,24.6,7.1,24.7,6.9c0.1-0.2-10.9-3.6-24.5-7.6
						C70.5,262.5,59.5,259.4,59.4,259.6z"/>
				</g>
			</g>
			<g>
				<g>
					<path fill="#263238" d="M99.9,248.6c0,0,0.4-0.5,1.1-1.6c0.8-1.2,1.7-2.6,2.9-4.4c2.5-3.7,5.9-8.8,10-14.2
						c4.1-5.4,8.1-10.1,11-13.4c1.4-1.6,2.5-2.9,3.5-4c0.8-0.9,1.3-1.5,1.2-1.5c0,0-0.5,0.4-1.4,1.3c-0.9,0.9-2.1,2.2-3.7,3.8
						c-3,3.3-7.1,7.9-11.2,13.3c-4.1,5.4-7.6,10.5-9.9,14.3c-1.2,1.9-2.1,3.5-2.7,4.5C100.1,248,99.8,248.6,99.9,248.6z"/>
				</g>
			</g>
			<g>
				<g>
					<path fill="#263238" d="M137.9,264c-0.1,0.1,0.9,1.7,2.6,4.2c1.6,2.6,3.9,6.2,6.2,10.2c2.3,4,4.2,7.8,5.6,10.5
						c1.4,2.7,2.2,4.4,2.3,4.4c0.1,0-0.6-1.8-1.8-4.6c-1.2-2.8-3.1-6.6-5.4-10.7c-2.3-4.1-4.6-7.6-6.4-10.1
						C139.2,265.4,138,263.9,137.9,264z"/>
				</g>
			</g>
			<g>
				<g>
					<path fill="#263238" d="M151,311.7c0.1,0.1,2.1-0.9,5.6-2.5c3.4-1.5,8.2-3.6,13.6-5.4c5.4-1.9,10.4-3.3,14-4.2
						c3.6-0.9,5.9-1.4,5.9-1.6c0-0.1-0.6,0-1.6,0.2c-1,0.2-2.5,0.4-4.4,0.8c-3.7,0.8-8.7,2.1-14.2,4c-5.4,1.9-10.2,4-13.6,5.7
						c-1.7,0.8-3,1.6-3.9,2.1C151.4,311.4,150.9,311.7,151,311.7z"/>
				</g>
			</g>
			<g>
				<g>
					<path fill="#263238" d="M140.7,368.8c0,0,0.2,0.1,0.7,0.2c0.5,0.1,1.2,0.3,2,0.5c1.8,0.4,4.3,1,7.3,1.7
						c6.1,1.4,14.7,3.2,23.8,6.3c9.1,3.1,16.9,7,22.2,10.4c2.7,1.7,4.7,3.2,6.1,4.3c1.4,1.1,2.2,1.7,2.2,1.6c0,0-0.2-0.2-0.5-0.5
						c-0.3-0.3-0.8-0.8-1.5-1.4c-1.3-1.2-3.4-2.7-6-4.5c-5.3-3.5-13.1-7.6-22.3-10.7c-9.2-3.1-17.8-4.8-24-6.1
						c-3-0.6-5.5-1.1-7.3-1.4C141.7,368.9,140.7,368.8,140.7,368.8z"/>
				</g>
			</g>
			<g>
				<g>
					<path fill="#263238" d="M103.6,382.9c0.2,0,1.5-7.7,2.9-17.2c1.4-9.5,2.3-17.3,2.1-17.3c-0.2,0-1.5,7.7-2.9,17.2
						C104.4,375.1,103.4,382.9,103.6,382.9z"/>
				</g>
			</g>
			<g>
				<g>
					<path fill="#263238" d="M65,368.9c0.1,0.1,1.4-1.5,3.5-4.1c2.1-2.6,5-6.2,8.2-10.1c3.3-3.9,6.3-7.4,8.5-9.9
						c2.2-2.5,3.6-4.1,3.5-4.1c0,0-0.4,0.3-1.1,0.9c-0.7,0.6-1.6,1.6-2.8,2.8c-2.3,2.4-5.4,5.8-8.7,9.7c-3.3,3.9-6.1,7.5-8.1,10.2
						c-1,1.3-1.8,2.4-2.3,3.2C65.2,368.4,65,368.9,65,368.9z"/>
				</g>
			</g>
		</g>
		<g>
			<polygon fill="#455A64" points="167.2,404.7 167.2,423.8 162.4,423.8 145.5,477.3 107.9,477.3 91.4,424.3 85.1,423.8 85.1,404.7 
							"/>
		</g>
		<g>
			<g>
				<path fill="#263238" d="M88.3,424.3c0,0.2,16.6,0.4,37.1,0.4c20.5,0,37.1-0.2,37.1-0.4c0-0.2-16.6-0.4-37.1-0.4
					C104.9,423.9,88.3,424.1,88.3,424.3z"/>
			</g>
		</g>
		<g>
			<g>
				<path fill="#263238" d="M61.2,301.6c0,0.1,0.8,0.3,2.4,0.7c1.7,0.4,3.9,0.9,6.6,1.6c5.6,1.4,13.2,3.5,21.5,6.3
					c8.3,2.8,15.6,5.7,20.9,8c2.5,1.1,4.6,2,6.2,2.7c1.5,0.6,2.3,1,2.3,0.9c0,0-0.8-0.5-2.2-1.2c-1.4-0.7-3.5-1.8-6.1-3
					c-5.2-2.4-12.6-5.4-20.9-8.2c-8.3-2.8-16-4.8-21.6-6c-2.8-0.6-5.1-1.1-6.7-1.3C62.1,301.7,61.2,301.6,61.2,301.6z"/>
			</g>
		</g>
		<g>
			<g>
				<path fill="#FAFAFA" d="M100.7,454c0,0.2,11.6,0.4,26,0.4c14.4,0,26-0.2,26-0.4c0-0.2-11.6-0.4-26-0.4
					C112.4,453.6,100.7,453.8,100.7,454z"/>
			</g>
		</g>
		<g>
			<g>
				<path fill="#FAFAFA" d="M99.3,449.6c0,0.2,12.3,0.4,27.6,0.4c15.2,0,27.6-0.2,27.6-0.4s-12.3-0.4-27.6-0.4
					C111.6,449.2,99.3,449.4,99.3,449.6z"/>
			</g>
		</g>
	</g>
</g>
<g id="Device">
	<g>
		<g>
			<g>
				<g>
					<g>
						<g>
							<g>
								<g>
									<g>
										<g>
											<path fill="#263238" d="M627.4,55.2H147.8c-8.3,0-15,6.7-15,15v338.7c0,8.3,6.7,15,15,15h184.1c0,0,11.7,36.2-24.6,54.9
												h172.1c0,0-41-14-30.4-54.9h178.4c8.3,0,15-6.7,15-15V70.1C642.3,61.9,635.6,55.2,627.4,55.2z"/>
										</g>
									</g>
								</g>
							</g>
							<g>
								<g>
									<g>
										<g>
											<path fill="#455A64" d="M394,388.2c6.5,9.3-3.7,19.5-13,13c-0.3-0.2-0.6-0.5-0.8-0.8c-6.5-9.3,3.7-19.5,13-13
												C393.5,387.6,393.8,387.9,394,388.2z"/>
										</g>
									</g>
								</g>
							</g>
						</g>
						<g>
							<g>
								<path fill="#FFFFFF" d="M634.1,361.9h-493V71.1c0-5.4,4.3-9.7,9.7-9.7h473.6c5.4,0,9.7,4.3,9.7,9.7V361.9z"/>
							</g>
						</g>
					</g>
					<g>
						<path fill="#EBEBEB" d="M634.1,86.3h-493V70.5c0-5.1,4.1-9.2,9.2-9.2h476.3c4.2,0,7.5,3.4,7.5,7.5V86.3z"/>
					</g>
					<g>
						<g>
							<path fill="#263238" d="M160.2,74.4c0,1.9-1.6,3.5-3.5,3.5c-1.9,0-3.5-1.6-3.5-3.5c0-1.9,1.6-3.5,3.5-3.5
								C158.7,70.9,160.2,72.5,160.2,74.4z"/>
						</g>
						<g>
							<path fill="#263238" d="M170.6,74.4c0,1.9-1.6,3.5-3.5,3.5c-1.9,0-3.5-1.6-3.5-3.5c0-1.9,1.6-3.5,3.5-3.5
								C169,70.9,170.6,72.5,170.6,74.4z"/>
						</g>
						<g>
							<path fill="#263238" d="M180.4,74.4c0,1.9-1.6,3.5-3.5,3.5c-1.9,0-3.5-1.6-3.5-3.5c0-1.9,1.6-3.5,3.5-3.5
								C178.8,70.9,180.4,72.5,180.4,74.4z"/>
						</g>
					</g>
				</g>
				<g>
					<g>
						<path fill="#455A64" d="M541.6,423.9c0,0.2-68.2,0.3-152.4,0.3c-84.2,0-152.4-0.1-152.4-0.3c0-0.2,68.2-0.3,152.4-0.3
							C473.4,423.6,541.6,423.7,541.6,423.9z"/>
					</g>
				</g>
			</g>
		</g>
		<g>
			<g>
				<g>
					<g>
						<path fill="#E0E0E0" d="M485.2,243.7c0,0-0.1,0-0.1,0c-0.1,0-0.2-0.1-0.4-0.2c-0.4-0.2-0.9-0.4-1.5-0.6
							c-1.3-0.6-3.2-1.4-5.6-2.4c-4.7-2.1-11.2-4.9-18.4-8c-0.2-0.1-0.4-0.2-0.6-0.3l0.1,0c-7,3-13.4,5.7-18,7.7
							c-2.3,1-4.1,1.7-5.5,2.3c-0.6,0.3-1.1,0.5-1.5,0.6c-0.3,0.1-0.5,0.2-0.5,0.2c0,0,0.2-0.1,0.5-0.3c0.4-0.2,0.8-0.4,1.5-0.7
							c1.3-0.6,3.1-1.4,5.4-2.4c4.6-2,10.9-4.7,18-7.8l0.1,0l0.1,0c0.2,0.1,0.4,0.2,0.6,0.3c7.2,3.2,13.6,6,18.3,8.1
							c2.3,1,4.2,1.9,5.5,2.5c0.6,0.3,1.1,0.5,1.5,0.7c0.2,0.1,0.3,0.1,0.4,0.2C485.1,243.7,485.2,243.7,485.2,243.7z"/>
					</g>
				</g>
			</g>
			<g>
				<g>
					<rect x="395.8" y="241.1" fill="#E0E0E0" width="118.1" height="88.4"/>
				</g>
			</g>
			<g>
				<g>
					<rect x="399.9" y="245.2" fill="#FAFAFA" width="110.3" height="80.7"/>
				</g>
			</g>
			<g>
				<g>
					<g>
						<path fill="#E0E0E0" d="M424.3,280.4c0,0,0.1,13.5,0.8,17.7l17-0.8c0,0-1.5-13.3-0.9-16.9H424.3z"/>
					</g>
				</g>
				<g>
					<g>
						<g>
							<g>
								<g>
									<path fill="#FFFFFF" d="M432.6,282.4C432.6,282.4,432.7,282.4,432.6,282.4c0.1,0,0.2,0,0.2,0c0.2,0,0.4,0,0.7,0
										c0.3,0,0.7,0.1,1.1,0.3c0.4,0.2,0.8,0.5,1.2,0.9c0.3,0.4,0.7,1,0.8,1.6c0.1,0.7,0.1,1.4-0.2,2.1c-0.1,0.4-0.3,0.7-0.5,1
										c-0.2,0.3-0.4,0.7-0.5,1.1c-0.3,0.7-0.6,1.6-0.7,2.4l0,0.1l-0.1,0c-0.5,0-1.1,0-1.7,0c-0.6,0-1.2,0-1.8,0l-0.1,0l0-0.1
										c0-0.9-0.4-1.6-0.8-2.3c-0.2-0.3-0.4-0.7-0.6-1c-0.2-0.3-0.4-0.6-0.6-1c-0.3-0.7-0.4-1.4-0.3-2.1c0.1-0.6,0.3-1.2,0.7-1.7
										c0.3-0.5,0.7-0.8,1.1-1c0.4-0.2,0.7-0.3,1-0.4c0.3-0.1,0.5-0.1,0.7-0.1C432.5,282.4,432.5,282.4,432.6,282.4
										C432.6,282.4,432.6,282.4,432.6,282.4C432.6,282.4,432.6,282.4,432.6,282.4c-0.1,0-0.2,0-0.2,0c-0.2,0-0.4,0.1-0.7,0.1
										c-0.3,0.1-0.6,0.2-1,0.4c-0.4,0.2-0.8,0.5-1.1,1c-0.3,0.4-0.5,1-0.6,1.7c-0.1,0.6-0.1,1.3,0.3,2c0.2,0.3,0.4,0.6,0.6,1
										c0.2,0.3,0.4,0.7,0.6,1c0.4,0.7,0.8,1.5,0.8,2.4l-0.1-0.1c0.6,0,1.2,0,1.8,0c0.6,0,1.1,0,1.7,0l-0.1,0.1
										c0.1-0.9,0.4-1.7,0.7-2.4c0.2-0.4,0.4-0.7,0.6-1.1c0.2-0.3,0.4-0.7,0.5-1c0.2-0.7,0.3-1.4,0.2-2c-0.1-0.6-0.4-1.2-0.8-1.6
										c-0.3-0.4-0.7-0.7-1.1-0.9c-0.4-0.2-0.8-0.3-1.1-0.3c-0.3,0-0.5-0.1-0.7-0.1C432.8,282.4,432.8,282.4,432.6,282.4
										C432.7,282.4,432.6,282.4,432.6,282.4z"/>
								</g>
							</g>
						</g>
						<g>
							<g>
								<g>
									<path fill="#FFFFFF" d="M433.5,291.8C433.5,291.8,433.5,291.8,433.5,291.8c0-0.1,0-0.1,0-0.2c0-0.1-0.1-0.3-0.1-0.6
										c-0.1-0.5-0.2-1.3-0.3-2.2c0-0.2,0-0.5,0-0.7c0-0.3,0-0.5,0-0.8c0-0.3,0.1-0.6,0.2-0.8c0.1-0.3,0.3-0.5,0.6-0.6
										c0.3-0.1,0.7-0.1,0.9,0.2c0.1,0.1,0.2,0.3,0.2,0.5c0,0.2-0.1,0.3-0.2,0.5c-0.1,0.1-0.2,0.3-0.4,0.3
										c-0.2,0.1-0.3,0.1-0.5,0.2c-0.3,0.1-0.7,0.1-1.1,0.1c-0.4,0-0.7,0-1.1-0.1c-0.2,0-0.3-0.1-0.5-0.1
										c-0.2-0.1-0.3-0.2-0.4-0.3c-0.1-0.1-0.2-0.3-0.2-0.5c0-0.2,0-0.4,0.1-0.5c0.1-0.2,0.2-0.3,0.4-0.3c0.2-0.1,0.3,0,0.5,0
										c0.1,0.1,0.3,0.2,0.4,0.3c0.1,0.1,0.1,0.3,0.2,0.4c0.1,0.3,0.1,0.6,0.1,0.9c0,0.6,0.1,1.1,0.1,1.6c0,0.9,0.1,1.7,0.1,2.3
										c0,0.3,0,0.5,0,0.6c0,0.1,0,0.1,0,0.2c0,0,0,0.1,0,0.1s0,0,0-0.1c0,0,0-0.1,0-0.2c0-0.1,0-0.3,0-0.6c0-0.5-0.1-1.3-0.1-2.3
										c0-0.5-0.1-1-0.1-1.6c0-0.3,0-0.6-0.1-0.9c0-0.1-0.1-0.3-0.2-0.4c-0.1-0.1-0.2-0.2-0.3-0.3c-0.1-0.1-0.3-0.1-0.4,0
										c-0.1,0.1-0.3,0.2-0.3,0.3c-0.1,0.1-0.1,0.3-0.1,0.5c0,0.2,0.1,0.3,0.2,0.4c0.2,0.3,0.6,0.4,0.9,0.4
										c0.3,0.1,0.7,0.1,1.1,0.1c0.4,0,0.7-0.1,1.1-0.1c0.2,0,0.3-0.1,0.5-0.2c0.2-0.1,0.3-0.2,0.4-0.3c0.1-0.1,0.2-0.3,0.2-0.5
										c0-0.2-0.1-0.3-0.2-0.4c-0.2-0.2-0.6-0.3-0.9-0.2c-0.3,0.1-0.5,0.4-0.6,0.6c-0.1,0.3-0.2,0.6-0.2,0.8c0,0.3,0,0.5,0,0.8
										c0,0.3,0,0.5,0,0.7c0.1,0.9,0.2,1.7,0.2,2.2c0,0.3,0.1,0.5,0.1,0.6C433.5,291.7,433.5,291.7,433.5,291.8
										C433.5,291.8,433.5,291.8,433.5,291.8z"/>
								</g>
							</g>
						</g>
						<g>
							<g>
								<g>
									<path fill="#FFFFFF" d="M431.3,291.9c0,0,0,0.2,0,0.6c0,0.4,0,0.9,0.1,1.5l0,0c0.3,0.4,0.7,0.8,1.1,1.3l-0.1,0
										c0.4,0,0.9,0,1.3-0.1l-0.1,0c0.2-0.3,0.4-0.5,0.7-0.8c0.1-0.1,0.2-0.3,0.3-0.4l0,0.1c0-0.8,0-1.5-0.1-2.2l0.1,0.1
										c-1,0-1.8,0-2.5,0c-0.3,0-0.5,0-0.7,0C431.4,291.9,431.3,291.9,431.3,291.9c0,0,0.1,0,0.2,0c0.2,0,0.4,0,0.7,0
										c0.7,0,1.5-0.1,2.5-0.1l0.1,0l0,0.1c0,0.7,0,1.4,0.1,2.2l0,0l0,0c-0.1,0.1-0.2,0.3-0.3,0.4c-0.2,0.3-0.4,0.5-0.7,0.8l0,0
										l0,0c-0.5,0-0.9,0-1.3,0.1l0,0l0,0c-0.4-0.5-0.8-0.9-1.1-1.3l0,0l0,0c0-0.6,0-1.1,0-1.5
										C431.3,292.1,431.3,291.9,431.3,291.9z"/>
								</g>
							</g>
						</g>
						<g>
							<g>
								<g>
									<path fill="#FFFFFF" d="M434.7,293.8c0,0,0,0-0.1-0.1c-0.1,0-0.2-0.1-0.3-0.1c-0.3-0.1-0.7-0.2-1.2-0.2
										c-0.5,0-0.9,0.1-1.2,0.3c-0.1,0.1-0.3,0.1-0.3,0.2c-0.1,0-0.1,0.1-0.1,0.1c0,0,0,0,0.1-0.1c0.1,0,0.2-0.1,0.3-0.2
										c0.3-0.1,0.7-0.3,1.2-0.3c0.5,0,0.9,0.1,1.2,0.2c0.1,0.1,0.3,0.1,0.3,0.2C434.6,293.8,434.7,293.8,434.7,293.8z"/>
								</g>
							</g>
						</g>
						<g>
							<g>
								<g>
									<path fill="#FFFFFF" d="M434.7,293.3c0,0,0,0-0.1-0.1c-0.1,0-0.2-0.1-0.3-0.1c-0.3-0.1-0.7-0.2-1.2-0.2
										c-0.5,0-0.9,0.1-1.2,0.3c-0.1,0.1-0.3,0.1-0.3,0.2c-0.1,0-0.1,0.1-0.1,0.1c0,0,0,0,0.1-0.1c0.1,0,0.2-0.1,0.3-0.2
										c0.3-0.1,0.7-0.3,1.2-0.3c0.5,0,0.9,0.1,1.2,0.2c0.1,0.1,0.3,0.1,0.3,0.2C434.6,293.2,434.7,293.3,434.7,293.3z"/>
								</g>
							</g>
						</g>
						<g>
							<g>
								<g>
									<path fill="#FFFFFF" d="M434.7,292.8c0,0,0,0-0.1-0.1c-0.1,0-0.2-0.1-0.3-0.1c-0.3-0.1-0.7-0.2-1.2-0.2
										c-0.5,0-0.9,0.1-1.2,0.3c-0.1,0.1-0.3,0.1-0.3,0.2c-0.1,0-0.1,0.1-0.1,0.1c0,0,0,0,0.1-0.1c0.1,0,0.2-0.1,0.3-0.2
										c0.3-0.1,0.7-0.3,1.2-0.3c0.5,0,0.9,0.1,1.2,0.2c0.1,0.1,0.3,0.1,0.3,0.2C434.6,292.7,434.7,292.8,434.7,292.8z"/>
								</g>
							</g>
						</g>
					</g>
				</g>
			</g>
			<g>
				<g>
					<g>
						<g>
							<path fill="#EBEBEB" d="M405.4,258.3c0,0,0.1,13.5,0.8,17.7l17-0.8c0,0-1.5-13.3-0.9-16.9H405.4z"/>
						</g>
					</g>
					<g>
						<g>
							<g>
								<path fill="#FFFFFF" d="M419.7,264c0,0.1-2.5,0.3-5.7,0.5c-3.1,0.2-5.7,0.3-5.7,0.2c0-0.1,2.5-0.3,5.7-0.5
									C417.1,264,419.7,263.9,419.7,264z"/>
							</g>
						</g>
					</g>
					<g>
						<g>
							<g>
								<path fill="#FFFFFF" d="M419.7,266.9c0,0.1-2.5,0.3-5.7,0.5c-3.1,0.2-5.7,0.3-5.7,0.2c0-0.1,2.5-0.3,5.7-0.5
									C417.1,266.9,419.7,266.8,419.7,266.9z"/>
							</g>
						</g>
					</g>
					<g>
						<g>
							<g>
								<path fill="#FFFFFF" d="M416.8,269.7c0,0.1-1.4,0.3-3.2,0.4c-1.8,0.1-3.3,0.1-3.3,0c0-0.1,1.4-0.3,3.2-0.4
									C415.3,269.6,416.8,269.6,416.8,269.7z"/>
							</g>
						</g>
					</g>
				</g>
			</g>
			<g>
				<g>
					<g>
						<g>
							<path fill="#EBEBEB" d="M404.6,298.2c0,0,0.1,13.5,0.8,17.7l17-0.8c0,0-1.5-13.3-0.9-16.9H404.6z"/>
						</g>
					</g>
					<g>
						<g>
							<g>
								<path fill="#FFFFFF" d="M418.9,303.8c0,0.1-2.5,0.3-5.7,0.5c-3.1,0.2-5.7,0.3-5.7,0.2c0-0.1,2.5-0.3,5.7-0.5
									C416.3,303.8,418.9,303.7,418.9,303.8z"/>
							</g>
						</g>
					</g>
					<g>
						<g>
							<g>
								<path fill="#FFFFFF" d="M418.9,306.7c0,0.1-2.5,0.3-5.7,0.5c-3.1,0.2-5.7,0.3-5.7,0.2c0-0.1,2.5-0.3,5.7-0.5
									C416.3,306.7,418.9,306.6,418.9,306.7z"/>
							</g>
						</g>
					</g>
					<g>
						<g>
							<g>
								<path fill="#FFFFFF" d="M416,309.5c0,0.1-1.4,0.3-3.2,0.4c-1.8,0.1-3.3,0.1-3.3,0c0-0.1,1.4-0.3,3.2-0.4
									C414.5,309.4,416,309.4,416,309.5z"/>
							</g>
						</g>
					</g>
				</g>
			</g>
			<g>
				<g>
					<g>
						<polygon fill="#EBEBEB" points="451,261.9 452.7,301 501.4,301.5 499.2,262.4 						"/>
					</g>
				</g>
				<g>
					<g>
						<g>
							<g>
								<rect x="450.4" y="261.6" fill="#F5F5F5" width="48.4" height="36.6"/>
							</g>
						</g>
						<g>
							<g>
								<g>
									<path fill="#E0E0E0" d="M498.8,298.2c0,0,0-0.2,0-0.7c0-0.5,0-1.1,0-2c0-1.7,0-4.2,0-7.4c0-6.4,0-15.5-0.1-26.5l0.1,0.1
										c-13.7,0-30.4,0-48.4,0h0l0.2-0.2c0,13.2,0,25.6,0,36.6l-0.2-0.2c14.3,0,26.4,0.1,34.9,0.1c4.3,0,7.6,0,9.9,0
										c1.1,0,2,0,2.6,0c0.3,0,0.5,0,0.7,0C498.8,298.2,498.8,298.2,498.8,298.2s-0.1,0-0.2,0c-0.2,0-0.4,0-0.7,0
										c-0.6,0-1.5,0-2.6,0c-2.3,0-5.7,0-9.9,0c-8.5,0-20.7,0-35,0.1l-0.2,0l0-0.2c0-11,0-23.4,0-36.6l0-0.2h0.2h0
										c18,0,34.7,0,48.4,0l0.1,0l0,0.1c0,11.1-0.1,20.2-0.1,26.6c0,3.2,0,5.7,0,7.4c0,0.8,0,1.5,0,1.9
										C498.8,298,498.8,298.2,498.8,298.2z"/>
								</g>
							</g>
						</g>
					</g>
					<g>
						<g>
							<g>
								<rect x="456.2" y="269.4" fill="#F5F5F5" width="19.6" height="24.7"/>
							</g>
						</g>
						<g>
							<g>
								<g>
									<path fill="#E0E0E0" d="M475.9,294.1c0,0,0,0,0-0.1c0-0.1,0-0.2,0-0.4c0-0.3,0-0.8,0-1.4c0-1.2,0-2.9,0-5.1
										c0-4.3,0-10.5-0.1-17.8l0.1,0.1c-5.9,0-12.5,0-19.6,0c0,0,0.3-0.3,0.2-0.2v0v0v0v0.1v0.1v0.2l0,0.4l0,0.9
										c0,0.6,0,1.1,0,1.7c0,1.1,0,2.2,0,3.3c0,2.2,0,4.3,0,6.4c0,4.1,0,8,0,11.6l-0.1-0.1c5.9,0,10.8,0.1,14.2,0.1c1.7,0,3,0,4,0
										c0.4,0,0.8,0,1.1,0C475.7,294.1,475.9,294.1,475.9,294.1c0,0-0.1,0-0.3,0c-0.3,0-0.6,0-1,0c-0.9,0-2.3,0-4,0
										c-3.5,0-8.4,0-14.3,0.1l-0.1,0l0-0.1c0-3.5,0-7.4,0-11.6c0-2.1,0-4.2,0-6.4c0-1.1,0-2.2,0-3.3c0-0.6,0-1.1,0-1.7l0-0.9
										v-0.4v-0.2v-0.1v-0.1v0v0v0c-0.1,0.1,0.2-0.2,0.2-0.2c7.1,0,13.8,0,19.6,0l0.1,0l0,0.1c0,7.3-0.1,13.5-0.1,17.9
										c0,2.1,0,3.8,0,5c0,0.6,0,1,0,1.3c0,0.1,0,0.2,0,0.3C475.9,294,475.9,294.1,475.9,294.1z"/>
								</g>
							</g>
						</g>
					</g>
					<g>
						<g>
							<g>
								<rect x="457" y="263.7" fill="#F5F5F5" width="37.6" height="3.6"/>
							</g>
						</g>
						<g>
							<g>
								<g>
									<path fill="#E0E0E0" d="M494.6,267.3c0,0,0-0.1,0-0.2c0-0.2,0-0.4,0-0.7c0-0.6,0-1.5,0-2.6l0.1,0.1
										c-6.3,0.1-20.8,0.1-37.6,0.1h0c0.3-0.3,0.1-0.1,0.2-0.2v0v0v0v0v0v0.1v0.1v0.2l0,0.5c0,0.3,0,0.6,0,0.9c0,0.6,0,1.2,0,1.7
										l-0.2-0.2c10.5,0,19.9,0.1,26.7,0.1c3.4,0,6.1,0,8,0c0.9,0,1.7,0,2.2,0c0.2,0,0.4,0,0.6,0
										C494.6,267.3,494.6,267.3,494.6,267.3c0,0-0.1,0-0.2,0c-0.1,0-0.3,0-0.5,0c-0.5,0-1.2,0-2.1,0c-1.9,0-4.6,0-8,0
										c-6.8,0-16.2,0-26.8,0.1l-0.2,0l0-0.2c0-0.6,0-1.2,0-1.7c0-0.3,0-0.6,0-0.9v-0.5v-0.2v-0.1v-0.1v0v0v0v0v0
										c0.1-0.1-0.2,0.2,0.2-0.2h0c16.8,0,31.3,0,37.6,0.1l0.1,0l0,0.1c0,1.1,0,2,0,2.7c0,0.3,0,0.5,0,0.7
										C494.6,267.2,494.6,267.3,494.6,267.3z"/>
								</g>
							</g>
						</g>
					</g>
					<g>
						<g>
							<g>
								<rect x="478.3" y="269.4" fill="#F5F5F5" width="16.3" height="14.9"/>
							</g>
						</g>
						<g>
							<g>
								<g>
									<path fill="#E0E0E0" d="M494.6,284.3c0,0,0-0.1,0-0.3c0-0.2,0-0.5,0-0.8c0-0.7,0-1.7,0-3c0-2.6,0-6.3-0.1-10.8l0.1,0.1
										c-4.7,0-10.3,0-16.3,0c0,0,0.3-0.3,0.2-0.2v0v0v0v0v0.1v0.1v0.3l0,0.5c0,0.3,0,0.7,0,1c0,0.7,0,1.3,0,2c0,1.3,0,2.6,0,3.8
										c0,2.5,0,4.9,0,7l-0.1-0.1c4.8,0,8.9,0.1,11.8,0.1c1.4,0,2.5,0,3.3,0c0.4,0,0.7,0,0.9,0
										C494.5,284.3,494.6,284.3,494.6,284.3c0,0-0.1,0-0.3,0c-0.2,0-0.5,0-0.9,0c-0.8,0-1.9,0-3.3,0c-2.9,0-7,0-11.9,0.1l-0.1,0
										l0-0.1c0-2.2,0-4.6,0-7c0-1.2,0-2.5,0-3.8c0-0.7,0-1.3,0-2c0-0.3,0-0.7,0-1l0-0.5v-0.3v-0.1v-0.1v0v0v0v0
										c-0.1,0.1,0.2-0.2,0.2-0.2c6,0,11.6,0,16.3,0l0.1,0l0,0.1c0,4.5-0.1,8.2-0.1,10.8c0,1.3,0,2.3,0,3c0,0.3,0,0.6,0,0.8
										C494.6,284.2,494.6,284.3,494.6,284.3z"/>
								</g>
							</g>
						</g>
					</g>
					<g>
						<g>
							<g>
								<rect x="478.3" y="286.6" fill="#F5F5F5" width="16.3" height="7.5"/>
							</g>
						</g>
						<g>
							<g>
								<g>
									<path fill="#E0E0E0" d="M494.6,294.1c0,0,0-0.2,0-0.5c0-0.4,0-0.9,0-1.5c0-1.3,0-3.2-0.1-5.4l0.1,0.1c-4.3,0-10,0-16.3,0
										c-0.1,0.1,0.2-0.2,0.2-0.2v0v0v0v0v0v0.1v0.1l0,0.2v0.5c0,0.3,0,0.6,0,1c0,0.6,0,1.3,0,1.9c0,1.3,0,2.5,0,3.6l-0.2-0.2
										c4.7,0,8.8,0.1,11.7,0.1c1.4,0,2.6,0,3.4,0c0.4,0,0.7,0,0.9,0C494.5,294.1,494.6,294.1,494.6,294.1c0,0-0.1,0-0.3,0
										c-0.2,0-0.5,0-0.9,0c-0.8,0-2,0-3.4,0c-2.9,0-7,0-11.8,0.1l-0.2,0l0-0.2c0-1.2,0-2.4,0-3.6c0-0.6,0-1.3,0-1.9
										c0-0.3,0-0.6,0-1v-0.5l0-0.2v-0.1v-0.1v0v0v0v0v0c0,0,0.3-0.3,0.2-0.2c6.3,0,12.1,0,16.3,0l0.1,0l0,0.1
										c0,2.3,0,4.2-0.1,5.5c0,0.6,0,1.1,0,1.5C494.6,293.9,494.6,294.1,494.6,294.1z"/>
								</g>
							</g>
						</g>
					</g>
					<g>
						<g>
							<g>
								<path fill="#FFFFFF" d="M475.4,269.4c-6.1,8.4-13.1,16.3-19.1,24.7"/>
							</g>
						</g>
						<g>
							<g>
								<g>
									<path fill="#E0E0E0" d="M456.2,294.1c0,0,0-0.1,0.2-0.3c0.1-0.2,0.3-0.5,0.5-0.8c0.4-0.7,1.1-1.6,2-2.7
										c1.7-2.3,4.1-5.3,6.8-8.7c2.7-3.4,5.1-6.4,6.9-8.6c0.8-1.1,1.5-2,2-2.6c0.2-0.3,0.4-0.5,0.6-0.7c0.1-0.2,0.2-0.2,0.2-0.2
										c0,0,0,0.1-0.2,0.3c-0.1,0.2-0.3,0.5-0.5,0.8c-0.4,0.7-1.1,1.6-2,2.7c-1.7,2.3-4.1,5.3-6.8,8.7c-2.7,3.4-5.1,6.4-6.9,8.6
										c-0.8,1.1-1.5,2-2,2.6c-0.2,0.3-0.4,0.5-0.6,0.7C456.3,294,456.3,294.1,456.2,294.1z"/>
								</g>
							</g>
						</g>
					</g>
					<g>
						<g>
							<g>
								<line fill="#FFFFFF" x1="456.2" y1="269.4" x2="475.9" y2="294.1"/>
							</g>
						</g>
						<g>
							<g>
								<g>
									<path fill="#E0E0E0" d="M475.9,294.1c-0.1,0.1-4.5-5.4-9.9-12.2c-5.4-6.8-9.8-12.4-9.7-12.5c0.1-0.1,4.5,5.4,9.9,12.3
										C471.6,288.4,476,294,475.9,294.1z"/>
								</g>
							</g>
						</g>
					</g>
				</g>
				<g>
					<g>
						<circle fill="#E0E0E0" cx="449.6" cy="269.4" r="3.1"/>
					</g>
				</g>
				<g>
					<g>
						<path fill="#E0E0E0" d="M502.9,262c0,1.7-1.4,3.1-3.1,3.1c-1.7,0-3.1-1.4-3.1-3.1c0-1.7,1.4-3.1,3.1-3.1
							C501.5,258.9,502.9,260.3,502.9,262z"/>
					</g>
				</g>
			</g>
		</g>
		<g>
			<g>
				<g>
					<defs>
						<path id="SVGID_1_" d="M294.4,235.3"/>
					</defs>
					<use xlink:href="#SVGID_1_"  overflow="visible" fill="#F5F5F5"/>
					<clipPath id="SVGID_2_">
						<use xlink:href="#SVGID_1_"  overflow="visible"/>
					</clipPath>
				</g>
			</g>
			<g>
				<g>
					<rect x="157.9" y="292.6" fill="#F5F5F5" width="31.3" height="62"/>
				</g>
				<g>
					<rect x="190.4" y="292.6" fill="#F5F5F5" width="33.8" height="62"/>
				</g>
				<g>
					<polygon fill="#F5F5F5" points="228.6,291.6 264.2,291.6 264.2,236.5 265.4,236.5 265.4,291.6 294.4,291.6 294.4,235.3 
						228.6,235.3 					"/>
				</g>
				<g>
					<rect x="265.4" y="292.6" fill="#F5F5F5" width="29" height="62"/>
				</g>
				<g>
					<polygon fill="#F5F5F5" points="189.2,291.6 189.2,236.5 190.4,236.5 190.4,291.6 224.2,291.6 224.2,235.3 157.9,235.3 
						157.9,291.6 					"/>
				</g>
				<g>
					<rect x="228.6" y="292.6" fill="#F5F5F5" width="35.6" height="62"/>
				</g>
			</g>
		</g>
		<g>
			<g>
				<g>
					<rect x="299.4" y="292.6" fill="#F5F5F5" width="31.3" height="62"/>
				</g>
				<g>
					<rect x="331.9" y="292.6" fill="#F5F5F5" width="33.8" height="62"/>
				</g>
				<g>
					<polygon fill="#F5F5F5" points="330.7,291.6 330.7,236.5 331.9,236.5 331.9,291.6 365.7,291.6 365.7,235.3 299.4,235.3 
						299.4,291.6 					"/>
				</g>
			</g>
		</g>
		<g>
			<g>
				<g>
					<g>
						<g>
							<g>
								
									<rect x="588.5" y="103.7" transform="matrix(1 -5.342984e-03 5.342984e-03 1 -0.6129 3.1595)" fill="#E0E0E0" width="5.1" height="25.2"/>
							</g>
						</g>
					</g>
				</g>
			</g>
			<g>
				<g>
					<g>
						<g>
							<g>
								<g>
									
										<rect x="544.5" y="103.8" transform="matrix(1 -5.344708e-03 5.344708e-03 1 -0.584 2.947)" fill="#EBEBEB" width="13.1" height="13.9"/>
								</g>
							</g>
						</g>
					</g>
				</g>
				<g>
					<g>
						<g>
							<g>
								<g>
									
										<rect x="557.6" y="103.7" transform="matrix(1 -5.352322e-03 5.352322e-03 1 -0.5842 3.0211)" fill="#F5F5F5" width="13.1" height="13.9"/>
								</g>
							</g>
						</g>
					</g>
				</g>
				<g>
					<g>
						<g>
							<g>
								<g>
									<g>
										<path fill="#E0E0E0" d="M544.5,107.6c8.7,0.1,17.5,0,26.2-0.1c0.2,0,0.2-0.3,0-0.3c-8.7,0-17.5,0-26.2,0.2
											C544.3,107.4,544.3,107.6,544.5,107.6L544.5,107.6z"/>
									</g>
								</g>
							</g>
						</g>
					</g>
				</g>
			</g>
			<g>
				<g>
					<g>
						<g>
							<g>
								<g>
									
										<rect x="536.3" y="117.5" transform="matrix(1 -5.355517e-03 5.355517e-03 1 -0.6518 2.9379)" fill="#EBEBEB" width="23.9" height="11.4"/>
								</g>
							</g>
						</g>
					</g>
				</g>
				<g>
					<g>
						<g>
							<g>
								<g>
									
										<rect x="560.1" y="117.4" transform="matrix(1 -5.359685e-03 5.359685e-03 1 -0.6513 3.0675)" fill="#F5F5F5" width="23.9" height="11.4"/>
								</g>
							</g>
						</g>
					</g>
				</g>
				<g>
					<g>
						<g>
							<g>
								<g>
									<g>
										<path fill="#E0E0E0" d="M536.3,120.7c15.9,0.2,31.8,0,47.6-0.2c0.2,0,0.2-0.3,0-0.3c-15.9-0.1-31.8-0.1-47.6,0.3
											C536.2,120.5,536.2,120.7,536.3,120.7L536.3,120.7z"/>
									</g>
								</g>
							</g>
						</g>
					</g>
				</g>
			</g>
			<g>
				<g>
					<g>
						<g>
							<g>
								<rect x="527.4" y="128.9" fill="#E0E0E0" width="92.5" height="4.1"/>
							</g>
						</g>
					</g>
				</g>
				<g>
					<g>
						<g>
							<g>
								<rect x="542.5" y="130.9" fill="#E0E0E0" width="3.8" height="13.9"/>
							</g>
						</g>
					</g>
				</g>
				<g>
					<g>
						<g>
							<g>
								<rect x="598.5" y="130.9" fill="#E0E0E0" width="3.8" height="13.9"/>
							</g>
						</g>
					</g>
				</g>
			</g>
			<g>
				<g>
					<g>
						<g>
							<g>
								
									<rect x="593.5" y="94.3" transform="matrix(1 -5.342984e-03 5.342984e-03 1 -0.5879 3.186)" fill="#EBEBEB" width="5.1" height="34.7"/>
							</g>
						</g>
					</g>
				</g>
			</g>
			<g>
				<g>
					<g>
						<g>
							<g>
								<g>
									
										<rect x="598.6" y="100.7" transform="matrix(1 -5.367262e-03 5.367262e-03 1 -0.6075 3.2354)" fill="#F5F5F5" width="7.9" height="28.1"/>
								</g>
							</g>
						</g>
					</g>
				</g>
				<g>
					<g>
						<g>
							<g>
								<g>
									<path fill="#E0E0E0" d="M606.3,106.1c0,0.1-1.8,0.1-3.9,0.1c-2.2,0-3.9-0.1-3.9-0.1c0-0.1,1.8-0.1,3.9-0.1
										C604.5,106,606.3,106.1,606.3,106.1z"/>
								</g>
							</g>
						</g>
					</g>
				</g>
				<g>
					<g>
						<g>
							<g>
								<g>
									<path fill="#E0E0E0" d="M606.3,105c0,0.1-1.8,0.1-3.9,0.1c-2.2,0-3.9-0.1-3.9-0.1c0-0.1,1.8-0.1,3.9-0.1
										C604.5,104.8,606.3,104.9,606.3,105z"/>
								</g>
							</g>
						</g>
					</g>
				</g>
				<g>
					<g>
						<g>
							<g>
								<g>
									<path fill="#E0E0E0" d="M606.3,124.6c0,0.1-1.8,0.1-3.9,0.1c-2.2,0-3.9-0.1-3.9-0.1c0-0.1,1.8-0.1,3.9-0.1
										C604.5,124.5,606.3,124.5,606.3,124.6z"/>
								</g>
							</g>
						</g>
					</g>
				</g>
				<g>
					<g>
						<g>
							<g>
								<g>
									<path fill="#E0E0E0" d="M606.3,123.4c0,0.1-1.8,0.1-3.9,0.1c-2.2,0-3.9-0.1-3.9-0.1c0-0.1,1.8-0.1,3.9-0.1
										C604.5,123.3,606.3,123.4,606.3,123.4z"/>
								</g>
							</g>
						</g>
					</g>
				</g>
				<g>
					<g>
						<g>
							<g>
								<g>
									<path fill="#E0E0E0" d="M602.5,120.9c-0.1,0-0.1-2.8-0.1-6.3c0-3.5,0.1-6.3,0.1-6.3c0.1,0,0.1,2.8,0.1,6.3
										C602.6,118,602.6,120.9,602.5,120.9z"/>
								</g>
							</g>
						</g>
					</g>
				</g>
			</g>
			<g>
				<g>
					<g>
						<g>
							<g>
								<rect x="606.4" y="107.6" fill="#EBEBEB" width="8.6" height="21.2"/>
							</g>
						</g>
					</g>
				</g>
			</g>
			<g>
				<g>
					<g>
						<g>
							<path fill="#E0E0E0" d="M597.3,100.2c0,0.8-0.7,1.5-1.5,1.5c-0.8,0-1.5-0.7-1.5-1.5c0-0.8,0.7-1.5,1.5-1.5
								C596.6,98.7,597.3,99.4,597.3,100.2z"/>
						</g>
					</g>
				</g>
			</g>
			<g>
				<g>
					<g>
						<g>
							<rect x="595.4" y="104.2" fill="#E0E0E0" width="0.9" height="20.6"/>
						</g>
					</g>
				</g>
			</g>
		</g>
		<g>
			<g>
				<g>
					<g>
						<rect x="161.3" y="114" fill="#FAFAFA" width="65.1" height="58.2"/>
					</g>
				</g>
				<g>
					<g>
						<g>
							<path fill="#E0E0E0" d="M226.4,172.3c0,0,0-0.4,0-1.1c0-0.7,0-1.8,0-3.1c0-2.7,0-6.7,0-11.8c0-10.2,0-24.7-0.1-42.2l0.1,0.1
								c-18.7,0-41.1,0-65.1,0h0l0.2-0.2c0,21.2,0,41.1,0,58.2l-0.2-0.2c19.4,0,35.7,0.1,47.1,0.1c5.7,0,10.2,0,13.3,0
								c1.5,0,2.7,0,3.5,0c0.4,0,0.7,0,0.9,0C226.3,172.3,226.4,172.3,226.4,172.3s-0.1,0-0.3,0c-0.2,0-0.5,0-0.9,0
								c-0.8,0-2,0-3.5,0c-3.1,0-7.6,0-13.2,0c-11.4,0-27.7,0-47.2,0.1l-0.2,0v-0.2c0-17.1,0-37.1,0-58.2v-0.2h0.2h0
								c24,0,46.3,0,65.1,0h0.1l0,0.1c0,17.5-0.1,32.1-0.1,42.3c0,5.1,0,9.1,0,11.8c0,1.3,0,2.4,0,3.1
								C226.4,171.9,226.4,172.3,226.4,172.3z"/>
						</g>
					</g>
				</g>
			</g>
			<g>
				<g>
					<g>
						<path fill="#E0E0E0" d="M186.3,124.4c0,0.1-3.4,0.2-7.7,0.2c-4.2,0-7.7-0.1-7.7-0.2c0-0.1,3.4-0.2,7.7-0.2
							C182.8,124.2,186.3,124.3,186.3,124.4z"/>
					</g>
				</g>
			</g>
			<g>
				<g>
					<g>
						<path fill="#E0E0E0" d="M213.9,128.8c0,0.1-9.4,0.2-21,0.2c-11.6,0-21-0.1-21-0.2c0-0.1,9.4-0.2,21-0.2
							C204.4,128.6,213.9,128.7,213.9,128.8z"/>
					</g>
				</g>
			</g>
			<g>
				<g>
					<rect x="171.1" y="136.2" fill="#E0E0E0" width="2.7" height="2.7"/>
				</g>
			</g>
			<g>
				<g>
					<rect x="177.8" y="136.2" fill="#E0E0E0" width="2.7" height="2.7"/>
				</g>
			</g>
			<g>
				<g>
					<rect x="184.7" y="136.1" fill="#E0E0E0" width="2.7" height="2.7"/>
				</g>
			</g>
			<g>
				<g>
					<rect x="191.3" y="136.2" fill="#E0E0E0" width="2.7" height="2.7"/>
				</g>
			</g>
			<g>
				<g>
					<rect x="198.1" y="136.2" fill="#E0E0E0" width="2.7" height="2.7"/>
				</g>
			</g>
			<g>
				<g>
					<rect x="204.8" y="136.2" fill="#E0E0E0" width="2.7" height="2.7"/>
				</g>
			</g>
			<g>
				<g>
					<rect x="211.6" y="136.2" fill="#EBEBEB" width="2.7" height="2.7"/>
				</g>
			</g>
			<g>
				<g>
					<rect x="171.1" y="142" fill="#EBEBEB" width="2.7" height="2.7"/>
				</g>
			</g>
			<g>
				<g>
					<rect x="177.8" y="142" fill="#E0E0E0" width="2.7" height="2.7"/>
				</g>
			</g>
			<g>
				<g>
					<rect x="184.6" y="142" fill="#EBEBEB" width="2.7" height="2.7"/>
				</g>
			</g>
			<g>
				<g>
					<rect x="191.3" y="142" fill="#E0E0E0" width="2.7" height="2.7"/>
				</g>
			</g>
			<g>
				<g>
					<rect x="198.1" y="142" fill="#E0E0E0" width="2.7" height="2.7"/>
				</g>
			</g>
			<g>
				<g>
					<rect x="205" y="141.9" fill="#E0E0E0" width="2.7" height="2.7"/>
				</g>
			</g>
			<g>
				<g>
					<rect x="211.6" y="142" fill="#E0E0E0" width="2.7" height="2.7"/>
				</g>
			</g>
			<g>
				<g>
					<rect x="171.1" y="147.8" fill="#E0E0E0" width="2.7" height="2.7"/>
				</g>
			</g>
			<g>
				<g>
					<rect x="178" y="147.7" fill="#E0E0E0" width="2.7" height="2.7"/>
				</g>
			</g>
			<g>
				<g>
					<rect x="184.6" y="147.8" fill="#E0E0E0" width="2.7" height="2.7"/>
				</g>
			</g>
			<g>
				<g>
					<rect x="191.3" y="147.8" fill="#EBEBEB" width="2.7" height="2.7"/>
				</g>
			</g>
			<g>
				<g>
					<rect x="198.1" y="147.8" fill="#E0E0E0" width="2.7" height="2.7"/>
				</g>
			</g>
			<g>
				<g>
					<rect x="204.8" y="147.8" fill="#E0E0E0" width="2.7" height="2.7"/>
				</g>
			</g>
			<g>
				<g>
					<rect x="211.6" y="147.8" fill="#E0E0E0" width="2.7" height="2.7"/>
				</g>
			</g>
			<g>
				<g>
					<rect x="171.1" y="153.7" fill="#E0E0E0" width="2.7" height="2.7"/>
				</g>
			</g>
			<g>
				<g>
					<rect x="177.8" y="153.7" fill="#E0E0E0" width="2.7" height="2.7"/>
				</g>
			</g>
			<g>
				<g>
					<rect x="184.6" y="153.7" fill="#E0E0E0" width="2.7" height="2.7"/>
				</g>
			</g>
			<g>
				<g>
					<rect x="191.5" y="153.5" fill="#E0E0E0" width="2.7" height="2.7"/>
				</g>
			</g>
			<g>
				<g>
					<rect x="198.1" y="153.7" fill="#E0E0E0" width="2.7" height="2.7"/>
				</g>
			</g>
			<g>
				<g>
					<rect x="204.8" y="153.7" fill="#EBEBEB" width="2.7" height="2.7"/>
				</g>
			</g>
			<g>
				<g>
					<rect x="211.6" y="153.7" fill="#E0E0E0" width="2.7" height="2.7"/>
				</g>
			</g>
			<g>
				<g>
					<rect x="171.1" y="159.5" fill="#E0E0E0" width="2.7" height="2.7"/>
				</g>
			</g>
			<g>
				<g>
					<rect x="177.8" y="159.5" fill="#EBEBEB" width="2.7" height="2.7"/>
				</g>
			</g>
			<g>
				<g>
					<rect x="184.6" y="159.5" fill="#E0E0E0" width="2.7" height="2.7"/>
				</g>
			</g>
			<g>
				<g>
					<rect x="191.3" y="159.5" fill="#E0E0E0" width="2.7" height="2.7"/>
				</g>
			</g>
			<g>
				<g>
					<rect x="198.1" y="159.5" fill="#E0E0E0" width="2.7" height="2.7"/>
				</g>
			</g>
			<g>
				<g>
					<rect x="205" y="159.4" fill="#E0E0E0" width="2.7" height="2.7"/>
				</g>
			</g>
			<g>
				<g>
					<rect x="211.6" y="159.5" fill="#E0E0E0" width="2.7" height="2.7"/>
				</g>
			</g>
		</g>
		<g>
			<g>
				<g>
					<rect x="331" y="142" fill="#F5F5F5" width="32.6" height="8.6"/>
				</g>
			</g>
			<g>
				<g>
					<g>
						<path fill="#E0E0E0" d="M349.8,159.7c0,0,0-0.1,0-0.2c0-0.1,0-0.3,0-0.4c0-0.4,0-1,0-1.7c0-1.5,0-3.6-0.1-6.3l0.1,0.1
							c-7.4,0-19.3,0-32.6,0.1c0.1-0.1-0.2,0.2,0.2-0.2v0v0v0v0v0v0.1v0.1l0,0.3v0.6c0,0.4,0,0.7,0,1.1c0,0.7,0,1.5,0,2.2
							c0,1.4,0,2.9,0,4.2l-0.2-0.2c9.3,0,17.4,0.1,23.2,0.1c2.9,0,5.2,0,6.8,0c0.8,0,1.4,0,1.9,0c0.2,0,0.4,0,0.5,0
							C349.7,159.7,349.8,159.7,349.8,159.7c0,0,0,0-0.2,0c-0.1,0-0.3,0-0.5,0c-0.4,0-1,0-1.8,0c-1.6,0-3.9,0-6.8,0
							c-5.8,0-14,0-23.3,0.1l-0.2,0l0-0.2c0-1.4,0-2.8,0-4.2c0-0.7,0-1.4,0-2.2c0-0.4,0-0.7,0-1.1l0-0.6v-0.3v-0.1v-0.1v0v0v0v0v0
							c0.3-0.3,0.1-0.1,0.2-0.2c13.3,0,25.1,0.1,32.6,0.1l0.1,0l0,0.1c0,2.7,0,4.9-0.1,6.4c0,0.7,0,1.3,0,1.7c0,0.2,0,0.3,0,0.4
							C349.8,159.6,349.8,159.7,349.8,159.7z"/>
					</g>
				</g>
			</g>
		</g>
		<g>
			<g>
				<g>
					<rect x="163.4" y="192.5" fill="#EBEBEB" width="32.6" height="8.6"/>
				</g>
			</g>
		</g>
		<g>
			<g>
				<g>
					<g>
						<path fill="#E0E0E0" d="M377.5,116.7c0,0,0-0.1,0-0.2c0-0.1,0-0.3,0-0.5c0-0.4,0-1,0-1.8c0-1.6,0-3.8-0.1-6.6l0.1,0.1
							c-7.8,0-20.2,0-34.2,0.1c0.1-0.1-0.2,0.2,0.2-0.2v0v0v0v0v0v0.1l0,0.1v0.3v0.6c0,0.4,0,0.8,0,1.2c0,0.8,0,1.5,0,2.3
							c0,1.5,0,3,0,4.4l-0.2-0.2c9.7,0,18.3,0.1,24.4,0.1c3,0,5.5,0,7.2,0c0.8,0,1.5,0,1.9,0c0.2,0,0.4,0,0.5,0
							C377.5,116.7,377.5,116.7,377.5,116.7c0,0,0,0-0.2,0c-0.1,0-0.3,0-0.5,0c-0.5,0-1.1,0-1.9,0c-1.7,0-4.1,0-7.2,0
							c-6.1,0-14.7,0-24.5,0.1l-0.2,0l0-0.2c0-1.5,0-2.9,0-4.4c0-0.8,0-1.5,0-2.3c0-0.4,0-0.8,0-1.2v-0.6V108v-0.1v-0.1v0v0v0v0v0
							c0.3-0.3,0.1-0.1,0.2-0.2c14,0,26.4,0.1,34.2,0.1l0.1,0l0,0.1c0,2.9,0,5.1-0.1,6.7c0,0.8,0,1.3,0,1.8c0,0.2,0,0.3,0,0.4
							C377.5,116.7,377.5,116.7,377.5,116.7z"/>
					</g>
				</g>
			</g>
			<g>
				<g>
					<g>
						<path fill="#E0E0E0" d="M382.2,107.7c0,0,0-0.1,0-0.2c0-0.1,0-0.3,0-0.5c0-0.4,0-1.1,0-1.8c0-1.6,0-3.8-0.1-6.6l0.1,0.1
							c-5.3,0-12.6,0-20.5,0c-0.2,0.2,0.2-0.2,0.2-0.2v0v0v0v0v0v0.1v0.1v0.3l0,0.6c0,0.4,0,0.8,0,1.2c0,0.8,0,1.5,0,2.3
							c0,1.5,0,3,0,4.4l-0.2-0.2c5.9,0,11,0.1,14.7,0.1c1.8,0,3.3,0,4.3,0c0.5,0,0.9,0,1.2,0C382,107.7,382.2,107.7,382.2,107.7
							c0,0-0.1,0-0.4,0c-0.3,0-0.7,0-1.1,0c-1,0-2.5,0-4.2,0c-3.7,0-8.8,0-14.8,0.1l-0.2,0l0-0.2c0-1.4,0-2.9,0-4.4
							c0-0.8,0-1.5,0-2.3c0-0.4,0-0.8,0-1.2l0-0.6v-0.3v-0.1v-0.1v0v0v0v0v0c0,0,0.3-0.3,0.2-0.2c8,0,15.2,0,20.5,0l0.1,0l0,0.1
							c0,2.8-0.1,5.1-0.1,6.7c0,0.8,0,1.3,0,1.8C382.2,107.5,382.2,107.7,382.2,107.7z"/>
					</g>
				</g>
			</g>
		</g>
		<g>
			<g>
				<g>
					<g>
						<path fill="#E0E0E0" d="M377.5,210.4c0,0,0-0.1,0-0.2c0-0.1,0-0.3,0-0.5c0-0.4,0-1,0-1.8c0-1.6,0-3.8-0.1-6.6l0.1,0.1
							c-7.8,0-20.2,0-34.2,0.1c0.1-0.1-0.2,0.2,0.2-0.2v0v0v0v0v0v0.1l0,0.1v0.3v0.6c0,0.4,0,0.8,0,1.2c0,0.8,0,1.5,0,2.3
							c0,1.5,0,3,0,4.4l-0.2-0.2c9.7,0,18.3,0.1,24.4,0.1c3,0,5.5,0,7.2,0c0.8,0,1.5,0,1.9,0c0.2,0,0.4,0,0.5,0
							C377.5,210.4,377.5,210.4,377.5,210.4c0,0,0,0-0.2,0c-0.1,0-0.3,0-0.5,0c-0.5,0-1.1,0-1.9,0c-1.7,0-4.1,0-7.2,0
							c-6.1,0-14.7,0-24.5,0.1l-0.2,0l0-0.2c0-1.5,0-2.9,0-4.4c0-0.8,0-1.5,0-2.3c0-0.4,0-0.8,0-1.2V202v-0.3v-0.1v-0.1v0v0v0v0v0
							c0.3-0.3,0.1-0.1,0.2-0.2c14,0,26.4,0.1,34.2,0.1l0.1,0l0,0.1c0,2.9,0,5.1-0.1,6.7c0,0.8,0,1.3,0,1.8c0,0.2,0,0.3,0,0.4
							C377.5,210.4,377.5,210.4,377.5,210.4z"/>
					</g>
				</g>
			</g>
			<g>
				<g>
					<g>
						<path fill="#E0E0E0" d="M382.2,201.4c0,0,0-0.1,0-0.2c0-0.1,0-0.3,0-0.5c0-0.4,0-1.1,0-1.8c0-1.6,0-3.8-0.1-6.6l0.1,0.1
							c-5.3,0-12.6,0-20.5,0c-0.2,0.2,0.2-0.2,0.2-0.2v0v0v0v0v0v0.1v0.1v0.3l0,0.6c0,0.4,0,0.8,0,1.2c0,0.8,0,1.5,0,2.3
							c0,1.5,0,3,0,4.4l-0.2-0.2c5.9,0,11,0.1,14.7,0.1c1.8,0,3.3,0,4.3,0c0.5,0,0.9,0,1.2,0C382,201.4,382.2,201.4,382.2,201.4
							c0,0-0.1,0-0.4,0c-0.3,0-0.7,0-1.1,0c-1,0-2.5,0-4.2,0c-3.7,0-8.8,0-14.8,0.1l-0.2,0l0-0.2c0-1.4,0-2.9,0-4.4
							c0-0.8,0-1.5,0-2.3c0-0.4,0-0.8,0-1.2l0-0.6v-0.3v-0.1v-0.1v0v0v0v0v0c0,0,0.3-0.3,0.2-0.2c8,0,15.2,0,20.5,0l0.1,0l0,0.1
							c0,2.8-0.1,5.1-0.1,6.7c0,0.8,0,1.3,0,1.8C382.2,201.2,382.2,201.4,382.2,201.4z"/>
					</g>
				</g>
			</g>
		</g>
		<g>
			<g>
				<rect x="396.6" y="104.1" fill="#EBEBEB" width="53.6" height="53.6"/>
			</g>
			<g>
				<rect x="398.1" y="105.7" fill="#FFFFFF" width="50.5" height="50.5"/>
			</g>
			<g>
				<rect x="416.1" y="123.7" fill="#E0E0E0" width="14.5" height="14.5"/>
			</g>
			<g>
				<rect x="450.2" y="104.2" fill="#E0E0E0" width="2.3" height="53.6"/>
			</g>
		</g>
		<g>
			<g>
				<g>
					<g>
						<g>
							<g>
								<polyline fill="#E0E0E0" points="625.9,295 601.3,264.2 601,264.6 599.1,267.3 625.9,301.1 								"/>
							</g>
						</g>
					</g>
				</g>
			</g>
			<g>
				<g>
					<g>
						<g>
							<g>
								<polygon fill="#EBEBEB" points="601.8,258.1 603.6,255.7 601.7,254 599.8,256.4 								"/>
							</g>
						</g>
					</g>
				</g>
				<g>
					<g>
						<g>
							<g>
								<path fill="#EBEBEB" d="M604.5,259.7l-6.7-5.5l-7.2,7.7c-11.8,1.2-16.9,8.3-16.9,8.3l20,17.2c7.6-7.5,4.9-19,4.9-19
									L604.5,259.7z"/>
							</g>
						</g>
					</g>
				</g>
				<g>
					<g>
						<g>
							<g>
								<g>
									<path fill="#E0E0E0" d="M598.5,268.5c-0.1,0.1-1.9-1.3-4.1-3.1c-2.2-1.8-3.9-3.3-3.9-3.4c0.1-0.1,1.9,1.3,4.1,3.1
										C596.9,266.8,598.6,268.4,598.5,268.5z"/>
								</g>
							</g>
						</g>
					</g>
				</g>
			</g>
		</g>
		<g>
			<path fill="#263238" d="M386.3,361.7c-0.1,0-0.3-61.6-0.3-137.5c0-75.9,0.1-137.5,0.3-137.5c0.1,0,0.3,61.5,0.3,137.5
				C386.5,300.1,386.4,361.7,386.3,361.7z"/>
		</g>
		<g>
			<path fill="#263238" d="M634.6,224.9c0,0.1-110.6,0.3-247,0.3c-136.5,0-247.1-0.1-247.1-0.3c0-0.1,110.6-0.3,247.1-0.3
				C524,224.7,634.6,224.8,634.6,224.9z"/>
		</g>
		<g>
			<path fill="#263238" d="M634.1,361.9c0-1.4-0.1-88.5-0.2-231.4c0-17.9,0-36.6,0-56.1c0-1.2,0-2.4,0-3.7c0-1.2,0.1-2.5-0.2-3.6
				c-0.6-2.3-2.4-4.4-4.6-5.1c-0.6-0.2-1.2-0.3-1.8-0.4c-0.6,0-1.2,0-1.9,0c-1.2,0-2.5,0-3.8,0c-2.5,0-5,0-7.6,0
				c-10.1,0-20.5,0-31,0c-42,0-86.9,0-134.2,0c-47.2,0-96.8,0-148.2,0c-25.7,0-51.9,0-78.4,0c-13.3,0-26.6,0-40.1,0
				c-6.7,0-13.5,0-20.3,0c-3.4,0-6.8,0-10.2,0c-1.7-0.1-3.4,0.1-4.9,0.8c-1.5,0.7-2.8,1.7-3.8,3.1c-0.9,1.3-1.5,2.8-1.7,4.4
				c-0.1,1.6,0,3.3,0,4.9c0,3.3,0,6.5,0,9.8c0,6.5,0,13,0,19.5c0,13,0,25.9,0,38.7c0,25.6,0,50.9,0,75.7c0,49.7,0,97.6,0,143.2
				l-0.2-0.2C430.4,361.8,631.9,361.9,634.1,361.9c-2.2,0-203.7,0.1-493,0.2l-0.2,0v-0.2c0-45.7,0-93.6,0-143.2
				c0-24.8,0-50.1,0-75.7c0-12.8,0-25.7,0-38.7c0-6.5,0-13,0-19.5c0-3.3,0-6.5,0-9.8c0-1.6-0.1-3.3,0.1-4.9c0.2-1.7,0.8-3.3,1.8-4.7
				c1-1.4,2.4-2.6,4-3.3c1.6-0.7,3.4-0.9,5.1-0.8c3.4,0,6.8,0,10.2,0c6.8,0,13.5,0,20.3,0c13.5,0,26.8,0,40.1,0
				c26.5,0,52.7,0,78.4,0c51.4,0,101,0,148.2,0c47.2,0,92.1,0,134.2,0c10.5,0,20.8,0,31,0c2.5,0,5.1,0,7.6,0c1.3,0,2.5,0,3.8,0
				c0.6,0,1.2,0,1.9,0c0.6,0.1,1.3,0.2,1.9,0.4c2.4,0.8,4.3,3,4.9,5.4c0.3,1.2,0.2,2.5,0.2,3.7c0,1.2,0,2.4,0,3.7
				c0,19.5,0,38.2,0,56.1C634.2,273.4,634.1,360.4,634.1,361.9z"/>
		</g>
		<g>
			<path fill="#455A64" d="M161.2,101.2c0,2.4-2,4.4-4.4,4.4c-2.4,0-4.4-2-4.4-4.4s2-4.4,4.4-4.4C159.2,96.8,161.2,98.8,161.2,101.2
				z"/>
			<g>
				<path fill="#455A64" d="M187.8,102c0,0.1-5.5,0.2-12.2,0.2c-6.8,0-12.2-0.1-12.2-0.2c0-0.1,5.5-0.2,12.2-0.2
					C182.3,101.8,187.8,101.9,187.8,102z"/>
			</g>
		</g>
		<g>
			<path fill="#455A64" d="M411.3,101.2c0,2.4-2,4.4-4.4,4.4c-2.4,0-4.4-2-4.4-4.4s2-4.4,4.4-4.4C409.3,96.8,411.3,98.8,411.3,101.2
				z"/>
			<g>
				<path fill="#455A64" d="M437.9,102c0,0.1-5.5,0.2-12.2,0.2c-6.8,0-12.2-0.1-12.2-0.2c0-0.1,5.5-0.2,12.2-0.2
					C432.4,101.8,437.9,101.9,437.9,102z"/>
			</g>
		</g>
		<g>
			<path fill="#455A64" d="M411.3,245.3c0,2.4-2,4.4-4.4,4.4s-4.4-2-4.4-4.4s2-4.4,4.4-4.4S411.3,242.9,411.3,245.3z"/>
			<g>
				<path fill="#455A64" d="M437.9,246.1c0,0.1-5.5,0.2-12.2,0.2c-6.8,0-12.2-0.1-12.2-0.2c0-0.1,5.5-0.2,12.2-0.2
					C432.5,245.9,437.9,246,437.9,246.1z"/>
			</g>
		</g>
		<g>
			<path fill="#455A64" d="M161.6,245.3c0,2.4-2,4.4-4.4,4.4c-2.4,0-4.4-2-4.4-4.4s2-4.4,4.4-4.4
				C159.6,240.9,161.6,242.9,161.6,245.3z"/>
			<g>
				<path fill="#455A64" d="M188.2,246.1c0,0.1-5.5,0.2-12.2,0.2c-6.8,0-12.2-0.1-12.2-0.2c0-0.1,5.5-0.2,12.2-0.2
					C182.7,245.9,188.2,246,188.2,246.1z"/>
			</g>
		</g>
		<g>
			<path fill="#FF725E" d="M616.5,110.4L616.5,110.4c-5.1,0-9.1-4.1-9.1-9.1l0,0c0-5.1,4.1-9.1,9.1-9.1l0,0c5.1,0,9.1,4.1,9.1,9.1
				l0,0C625.6,106.3,621.6,110.4,616.5,110.4z"/>
			<path fill="#FFFFFF" d="M616.2,101.3c0.6-0.2,1-0.7,1-1.4c0-0.8-0.7-1.5-1.5-1.5c-0.8,0-1.5,0.7-1.5,1.5c0,0.6,0.4,1.2,1,1.4
				c-1.2,0.2-2.1,1.2-2.1,2.5h5.1C618.3,102.5,617.4,101.5,616.2,101.3z"/>
			<path fill="#FFFFFF" d="M619,101.7c-0.1,0-0.2-0.1-0.2-0.2v-2.3c0-0.1,0.1-0.2,0.2-0.2c0.1,0,0.2,0.1,0.2,0.2v2.3
				C619.2,101.6,619.2,101.7,619,101.7z"/>
			<path fill="#FFFFFF" d="M620.2,100.5h-2.3c-0.1,0-0.2-0.1-0.2-0.2c0-0.1,0.1-0.2,0.2-0.2h2.3c0.1,0,0.2,0.1,0.2,0.2
				C620.4,100.4,620.3,100.5,620.2,100.5z"/>
		</g>
		<g>
			<polygon fill="#455A64" points="141.1,339.9 141.1,361.9 166.8,361.9 231.5,361.9 634.1,361.9 634.1,339.9 			"/>
			<g>
				<circle fill="#FFFFFF" cx="404.6" cy="350.5" r="6.9"/>
				<path fill="#FF725E" d="M404.2,352.4h-0.9c-0.7,0-1.3-0.6-1.3-1.3v-0.9c0-0.7,0.6-1.3,1.3-1.3h0.9c0.7,0,1.3,0.6,1.3,1.3v0.9
					C405.5,351.8,404.9,352.4,404.2,352.4z"/>
				<path fill="#FF725E" d="M405.8,351.3v-1.2l0.9-0.9c0.1-0.1,0.3,0,0.3,0.1v2.6c0,0.2-0.2,0.2-0.3,0.1L405.8,351.3z"/>
			</g>
			<g>
				<path fill="#FFFFFF" d="M371.4,350c0,3.5-2.9,6.4-6.4,6.4c-3.5,0-6.4-2.9-6.4-6.4c0-3.5,2.9-6.4,6.4-6.4
					C368.5,343.6,371.4,346.5,371.4,350z"/>
				<path fill="#FF725E" d="M362.9,350.7c-0.3,0-0.6-0.3-0.6-0.6c0-0.3,0.3-0.6,0.6-0.6c0.3,0,0.6,0.3,0.6,0.6
					C363.5,350.4,363.3,350.7,362.9,350.7z"/>
				<path fill="#FF725E" d="M364.9,350.7c-0.3,0-0.6-0.3-0.6-0.6c0-0.3,0.3-0.6,0.6-0.6s0.6,0.3,0.6,0.6
					C365.5,350.4,365.2,350.7,364.9,350.7z"/>
				<path fill="#FF725E" d="M367,350.7c-0.3,0-0.6-0.3-0.6-0.6c0-0.3,0.3-0.6,0.6-0.6c0.3,0,0.6,0.3,0.6,0.6
					C367.6,350.4,367.3,350.7,367,350.7z"/>
			</g>
			<g>
				<g>
					<g>
						<g>
							<circle fill="#FFFFFF" cx="385.4" cy="350.9" r="9.7"/>
						</g>
					</g>
				</g>
				<g>
					<path fill="#FF725E" d="M381.5,352.6l1.7-0.4c0.2-0.1,0.4-0.2,0.4-0.5v-0.4c0,0-0.1-0.6,0.5-0.6c0.4,0,3,0,3,0s0.7,0,0.7,0.5
						v0.5c0,0.2,0.1,0.3,0.3,0.4l1.9,0.6c0.2,0.1,0.4,0,0.5-0.2l0.2-0.6c0-0.1,0.1-0.2,0.1-0.3c0-0.2-0.1-0.6-0.3-0.9
						c-0.4-0.5-2.1-1.6-5.5-1.4c-3.2,0.2-3.9,1.5-4.1,1.8c-0.1,0.2-0.1,0.7-0.1,0.9c0,0.1,0.1,0.2,0.1,0.3
						C381.1,352.5,381.3,352.7,381.5,352.6z"/>
				</g>
			</g>
		</g>
	</g>
</g>
<g id="Character_4">
	<g>
		<g>
			<g>
				<g>
					<path fill="#263238" d="M549.8,276.8c-2.2-2.2-6.1-2.8-8.5-0.8l-10.5,13.9c0.5,2.3,1.5,4.5,3.1,6.2c1.6,1.7,4,2.7,6.3,2.5
						c3-0.3,6.2-2.1,8.1-4.4c2-2.4,3.8-4.7,4.4-9.1C553.3,282,552,279,549.8,276.8z"/>
				</g>
				<g>
					<g>
						<path fill="#455A64" d="M548.9,290.3c-0.1,0,0-0.8-0.2-1.9c-0.2-1.1-0.7-2.7-1.9-4c-1.2-1.3-2.7-2-3.8-2.3
							c-1.1-0.3-1.9-0.3-1.9-0.4c0-0.1,0.8-0.3,2-0.1c1.2,0.2,2.9,0.9,4.2,2.3c1.3,1.4,1.8,3.2,1.9,4.4
							C549.2,289.6,549,290.4,548.9,290.3z"/>
					</g>
				</g>
				<g>
					<g>
						<path fill="#455A64" d="M550.5,279.3c-0.1,0.2-2-0.5-4.4-0.5c-2.4,0-4.3,0.8-4.4,0.6c-0.1-0.1,1.8-1.2,4.4-1.2
							C548.7,278.2,550.6,279.2,550.5,279.3z"/>
					</g>
				</g>
			</g>
			<g>
				<g>
					<g>
						<path fill="#263238" d="M542.7,263.9c-1.4-6.5-7.9-13.3-14.2-15.6c-6.3-2.3-12-2.2-18.6-1.3c-7.3,1.2-13.6,5.9-16.5,12.7
							c-2.9,6.8-2.2,13.4-1.6,20.8c0.4,5.6,2,12.3,4.1,14.4c2.1,2,1.9,1,4.5,2.2c5.3,2.3,11.1,1.6,16.9,1.4
							c5.8-0.2,12.6-1.4,16.7-5.5c3.5-3.5,4.5-5.9,6.2-10.4C542.3,277.6,543.8,269.2,542.7,263.9z"/>
					</g>
				</g>
				<g>
					<g>
						<path fill="#FFD6BD" d="M532.8,271.2c0.2-10.5-8.4-19.2-19.2-19.1c-10.2,0.1-18.4,8.4-18.9,18.4c-0.4,8.8-0.7,17.6-0.3,20.8
							c1.1,9.5,7.2,12.7,9.6,13.5c0.6,0.2,2,0.3,2.6,0.4l0,0c0,0,0.1,0,0.1,0.1l-1,11.2c-0.2,7.3,4.5,13.3,11.9,13.5
							c7.4,0.3,12.6-5.8,13-13.1L532.8,271.2z"/>
					</g>
				</g>
				<g>
					<g>
						<g>
							<g>
								<g>
									<g>
										<g>
											<path fill="#263238" d="M496.3,275.3c0.1,0.2,1.4,0.1,3,0.6c1.6,0.5,2.6,1.4,2.8,1.4c0.1,0,0-0.3-0.5-0.7
												c-0.4-0.4-1.2-0.9-2.2-1.2c-1-0.3-1.9-0.4-2.4-0.4C496.5,275.1,496.3,275.2,496.3,275.3z"/>
										</g>
									</g>
								</g>
							</g>
						</g>
					</g>
				</g>
				<g>
					<g>
						<g>
							<g>
								<g>
									<g>
										<g>
											<path fill="#263238" d="M514,278c0.2,0,1.2-0.8,2.9-1.5c1.7-0.6,3.1-0.7,3.2-0.9c0.1-0.1-0.2-0.2-0.8-0.2
												c-0.6,0-1.6,0.2-2.6,0.6c-1,0.4-1.9,0.9-2.3,1.3C514,277.8,513.9,278,514,278z"/>
										</g>
									</g>
								</g>
							</g>
						</g>
					</g>
				</g>
				<g>
					<g>
						<g>
							<g>
								<g>
									<g>
										<g>
											<path fill="#263238" d="M507,285.8c0-0.1-1-0.3-2.7-0.6c-0.4-0.1-0.8-0.2-0.9-0.4c-0.1-0.3,0.1-0.8,0.3-1.2
												c0.4-1,0.9-2,1.4-3.1c1.9-4.5,3.4-8.2,3.2-8.2c-0.2-0.1-1.9,3.5-3.9,8c-0.5,1.1-0.9,2.2-1.3,3.2c-0.2,0.5-0.5,1-0.3,1.6
												c0.1,0.3,0.4,0.6,0.7,0.6c0.3,0.1,0.5,0.1,0.7,0.1C506,285.8,507,285.9,507,285.8z"/>
										</g>
									</g>
								</g>
							</g>
						</g>
					</g>
				</g>
				<g>
					<g>
						<g>
							<g>
								<g>
									<g>
										<path fill="#FFB394" d="M506.7,305.2c0,0,6.4,0.8,14.7-3.7c0,0-2.9,8.3-15,6.7L506.7,305.2z"/>
									</g>
								</g>
							</g>
						</g>
					</g>
				</g>
				<g>
					<g>
						<g>
							<g>
								<g>
									<g>
										<path fill="#FF725E" d="M507.6,289.8c0.6-0.8,1.7-1.1,2.7-1c0.7,0.1,1.4,0.5,1.9,1.1c0.4,0.6,0.5,1.4,0,2
											c-0.5,0.6-1.4,0.7-2.2,0.5c-0.8-0.3-1.5-0.8-2.1-1.3c-0.2-0.1-0.4-0.3-0.5-0.5C507.4,290.2,507.4,290,507.6,289.8"/>
									</g>
								</g>
							</g>
						</g>
					</g>
				</g>
				<g>
					<g>
						<g>
							<g>
								<g>
									<g>
										<g>
											<path fill="#263238" d="M511.9,287.1c-0.3,0-0.4,1.8-2,3c-1.6,1.2-3.5,0.9-3.6,1.2c0,0.1,0.4,0.4,1.2,0.4
												c0.8,0.1,2-0.1,3-0.9c1-0.7,1.4-1.8,1.5-2.5C512.2,287.6,512,287.1,511.9,287.1z"/>
										</g>
									</g>
								</g>
							</g>
						</g>
					</g>
				</g>
				<g>
					<g>
						<g>
							<g>
								<path fill="#263238" d="M514,268.8c0.2,0.4,1.6,0.1,3.3,0.2c1.7,0.1,3.1,0.5,3.3,0.1c0.1-0.2-0.2-0.6-0.8-1
									c-0.6-0.4-1.5-0.7-2.5-0.8c-1,0-1.9,0.2-2.5,0.6C514.2,268.2,513.9,268.6,514,268.8z"/>
							</g>
						</g>
					</g>
				</g>
				<g>
					<g>
						<g>
							<g>
								<path fill="#263238" d="M496.4,268c0.3,0.4,1.6,0,3.2,0.1c1.6,0,2.9,0.4,3.2,0c0.1-0.2,0-0.6-0.6-1.1
									c-0.6-0.4-1.5-0.8-2.6-0.8c-1.1,0-2,0.3-2.6,0.8C496.4,267.4,496.2,267.8,496.4,268z"/>
							</g>
						</g>
					</g>
				</g>
				<g>
					<g>
						<path fill="#263238" d="M509.4,248.3c-2.3,4.8,0.3,9.7,5.1,12.2c2,1.1,4.6,1.7,5.6,3.7c0.8,1.6,0.3,3.7,1.3,5.1
							c0.9,1.4,2.8,1.8,4.2,2.8c1.9,1.4,2.6,3.8,2.8,6.1c0.2,2.3,0,4.6,0.4,6.9c0.5,2.3,1.8,4.6,4,5.2c1.4-6.5,2.7-13.2,2.3-19.8
							c-0.4-6.7,2.3-14.2-2.4-19C528.2,246.8,515.6,246,509.4,248.3"/>
					</g>
				</g>
			</g>
			<g>
				<g>
					<path fill="#455A64" d="M542.9,274.1c-0.1,0,0.1-0.6-0.4-1.6c-0.4-1-1.6-2.2-3.5-2.6c-0.9-0.2-2-0.4-3.1-0.5
						c-1.1-0.1-2.4-0.3-3.7-0.8c-1.3-0.5-2.4-1.6-3-2.9c-0.7-1.3-1.2-2.7-2-3.9c-0.8-1.2-2-2-3.3-2.4c-1.3-0.4-2.7-0.5-3.9-0.7
						c-1.3-0.2-2.5-0.3-3.7-0.7c-1.1-0.4-2.1-0.9-2.9-1.5c-1.6-1.2-2.7-2.4-3.2-3.4c-0.3-0.5-0.5-0.9-0.6-1.1
						c-0.1-0.3-0.2-0.4-0.1-0.4c0,0,0.3,0.5,0.9,1.4c0.6,0.9,1.7,2.1,3.3,3.2c0.8,0.5,1.8,1,2.8,1.3c1.1,0.4,2.3,0.5,3.6,0.7
						c1.3,0.1,2.7,0.3,4.1,0.7c1.4,0.4,2.8,1.3,3.6,2.7c0.9,1.3,1.3,2.7,2,3.9c0.7,1.2,1.6,2.2,2.7,2.6c2.3,1,4.8,0.8,6.7,1.4
						c2,0.5,3.2,1.9,3.6,2.9c0.2,0.5,0.2,1,0.2,1.3C542.9,274,542.9,274.2,542.9,274.1z"/>
				</g>
			</g>
			<g>
				<g>
					<path fill="#455A64" d="M542.9,271.3c0,0,0,0.4,0,1.1c-0.1,0.7-0.2,1.7-0.4,2.9c-0.5,2.5-1.3,5.8-2.7,9.4
						c-1.4,3.6-3.4,6.5-5.2,8.3c-0.9,0.9-1.7,1.5-2.3,1.9c-0.6,0.4-0.9,0.6-0.9,0.5c-0.1-0.1,1.2-0.9,2.9-2.8
						c1.7-1.8,3.6-4.7,4.9-8.2c1.3-3.5,2.3-6.9,2.8-9.3C542.6,272.9,542.8,271.3,542.9,271.3z"/>
				</g>
			</g>
		</g>
		<g>
			<g>
				<path fill="#FF725E" d="M569.5,339.9c-4.1-13.2-1.9-7.4-3.9-12.9c-2.7-7.4-15.5-11.2-16.2-11.2l-1.6,6.6l2.4,17.6"/>
				<path fill="#FF725E" d="M531.8,309.7c-5.2,10.4-21.1,10.4-26.3,2.7l-18.6,10.8c-3.1,1.7-5.6,4.3-7.2,7.4
					c-1.2,2.4-2.2,4.8-3.1,9.2l78.1,0l-3.3-23.5L531.8,309.7z"/>
			</g>
		</g>
	</g>
</g>
<g id="Character_2">
	<g>
		<g>
			<path fill="#E0E0E0" d="M249.2,271.2c-1.4-0.7-2.4-1.9-2.8-3.4c2.4-0.5,4.2-2.7,4.3-5.1c0-1.5-0.6-3-1.1-4.5
				c-0.5-1.5-0.7-3.2,0.1-4.5c1.3-2.3,4.1-2.9,5.7-4.9c1.2-1.5,1.7-3.2,2.1-5.2c1-4.4,5.5-7.7,10-7.4c2,0.1,4,0.9,5.9,0.6
				c2.7-0.3,4.9-2.4,7.6-3.1c2.6-0.7,5.5-0.1,7.5,1.6c1.5,1.2,2.5,3,4,4.1c1.7,1.2,3.8,1.6,5.7,2.4c1.9,0.7,3.9,2.1,4.3,4.1
				c0.4,2.2-1.2,4.6-0.3,6.6c0.4,1,2,2.6,2.4,3.6c1.5,4.5-1.9,7.6-1.4,9.4c3,9.5-0.7,13.5-3.8,13.9l-38.9-0.8
				c-2.8,1.1-6,1.1-8.8-0.1c-2.7-1.2-4.9-3.6-5.9-6.5C247,272,248.2,271.8,249.2,271.2z"/>
			<g>
				<g>
					<g>
						<g>
							<g>
								<g>
									<g>
										<g>
											<g>
												<g>
													<g>
														<g>
															<g>
																<g>
																	<g>
																		<g>
																			<g>
																				<path fill="#FFBE9D" d="M259.2,271.8c-0.2-0.1-8.2-2.6-8,5.6c0.1,8.2,8.3,6.4,8.3,6.1
																					C259.5,283.3,259.2,271.8,259.2,271.8z"/>
																			</g>
																		</g>
																	</g>
																</g>
															</g>
														</g>
													</g>
												</g>
											</g>
										</g>
									</g>
								</g>
							</g>
						</g>
					</g>
				</g>
			</g>
			<g>
				<g>
					<g>
						<g>
							<g>
								<g>
									<g>
										<g>
											<g>
												<g>
													<g>
														<g>
															<g>
																<g>
																	<g>
																		<g>
																			<g>
																				<g>
																					<path fill="#EB996E" d="M257,280.5c0,0-0.1,0.1-0.4,0.2c-0.2,0.1-0.6,0.2-1.1,0c-0.9-0.3-1.6-1.7-1.7-3.1
																						c0-0.7,0.1-1.5,0.4-2c0.2-0.6,0.6-1,1.1-1.1c0.4-0.1,0.7,0.1,0.8,0.4c0.1,0.2,0.1,0.4,0.1,0.4
																						c0,0,0.2-0.1,0.1-0.5c0-0.2-0.1-0.4-0.3-0.5c-0.2-0.2-0.5-0.2-0.8-0.2c-0.6,0.1-1.2,0.6-1.5,1.3
																						c-0.3,0.7-0.5,1.4-0.5,2.3c0.1,1.6,0.9,3.2,2.1,3.5c0.6,0.1,1.1,0,1.3-0.2C256.9,280.7,257,280.5,257,280.5z"
																						/>
																				</g>
																			</g>
																		</g>
																	</g>
																</g>
															</g>
														</g>
													</g>
												</g>
											</g>
										</g>
									</g>
								</g>
							</g>
						</g>
					</g>
				</g>
			</g>
			<g>
				<g>
					<g>
						<path fill="#FFBE9D" d="M300.6,288.5c0.2-5.8-0.4-17.7-1.1-28.4c-0.7-11.6-10.2-20.6-21.8-20.9l-1.2,0
							c-12.4,0.5-18.9,11.4-18.1,23.8l1.1,41l21.3,13.2l7.5-5.9l0-9.2C288.3,302.1,300.2,300.4,300.6,288.5z"/>
					</g>
				</g>
			</g>
			<g>
				<g>
					<g>
						<g>
							<g>
								<g>
									<g>
										<g>
											<g>
												<g>
													<g>
														<g>
															<g>
																<g>
																	<g>
																		<g>
																			<g>
																				<path fill="#EB996E" d="M288.3,302.1c0,0-7.6,0.5-15.5-4.7c0,0,3.4,8.8,15.4,7.9L288.3,302.1z"/>
																			</g>
																		</g>
																	</g>
																</g>
															</g>
														</g>
													</g>
												</g>
											</g>
										</g>
									</g>
								</g>
							</g>
						</g>
					</g>
				</g>
			</g>
			<g>
				<g>
					<g>
						<g>
							<g>
								<g>
									<g>
										<g>
											<g>
												<g>
													<g>
														<g>
															<g>
																<g>
																	<g>
																		<g>
																			<g>
																				<g>
																					<g>
																						<g>
																							<path fill="#263238" d="M294.2,269.7c0,0.9-0.7,1.7-1.7,1.7c-0.9,0-1.7-0.7-1.7-1.6c0-0.9,0.7-1.7,1.7-1.7
																								C293.4,268.1,294.2,268.8,294.2,269.7z"/>
																						</g>
																					</g>
																				</g>
																			</g>
																		</g>
																	</g>
																</g>
															</g>
														</g>
													</g>
												</g>
											</g>
										</g>
									</g>
								</g>
							</g>
						</g>
					</g>
				</g>
			</g>
			<g>
				<g>
					<g>
						<g>
							<g>
								<g>
									<g>
										<g>
											<g>
												<g>
													<g>
														<g>
															<g>
																<g>
																	<g>
																		<g>
																			<g>
																				<g>
																					<g>
																						<g>
																							<path fill="#263238" d="M276.2,269.2c0,0.9-0.7,1.7-1.7,1.7c-0.9,0-1.7-0.7-1.7-1.6c0-0.9,0.7-1.7,1.7-1.7
																								C275.4,267.6,276.2,268.3,276.2,269.2z"/>
																						</g>
																					</g>
																				</g>
																			</g>
																		</g>
																	</g>
																</g>
															</g>
														</g>
													</g>
												</g>
											</g>
										</g>
									</g>
								</g>
							</g>
						</g>
					</g>
				</g>
			</g>
			<g>
				<g>
					<g>
						<g>
							<g>
								<g>
									<g>
										<g>
											<g>
												<g>
													<g>
														<g>
															<g>
																<g>
																	<g>
																		<g>
																			<g>
																				<g>
																					<g>
																						<g>
																							<g>
																								<path fill="#263238" d="M296.4,265.5c-0.2,0.2-1.5-0.8-3.3-0.8c-1.8-0.1-3.2,0.9-3.4,0.6
																									c-0.1-0.1,0.1-0.5,0.7-0.9c0.6-0.4,1.6-0.8,2.7-0.8c1.1,0,2.1,0.5,2.6,0.9
																									C296.3,265,296.5,265.4,296.4,265.5z"/>
																							</g>
																						</g>
																					</g>
																				</g>
																			</g>
																		</g>
																	</g>
																</g>
															</g>
														</g>
													</g>
												</g>
											</g>
										</g>
									</g>
								</g>
							</g>
						</g>
					</g>
				</g>
			</g>
			<g>
				<g>
					<g>
						<g>
							<g>
								<g>
									<g>
										<g>
											<g>
												<g>
													<g>
														<g>
															<g>
																<g>
																	<g>
																		<g>
																			<g>
																				<g>
																					<g>
																						<g>
																							<g>
																								<path fill="#263238" d="M277.6,265.4c-0.2,0.2-1.4-0.9-3.3-1c-1.8-0.2-3.2,0.7-3.4,0.4
																									c-0.1-0.1,0.2-0.5,0.8-0.9c0.6-0.4,1.6-0.7,2.8-0.6c1.1,0.1,2.1,0.6,2.6,1.1
																									C277.5,264.8,277.7,265.3,277.6,265.4z"/>
																							</g>
																						</g>
																					</g>
																				</g>
																			</g>
																		</g>
																	</g>
																</g>
															</g>
														</g>
													</g>
												</g>
											</g>
										</g>
									</g>
								</g>
							</g>
						</g>
					</g>
				</g>
			</g>
			<g>
				<g>
					<g>
						<g>
							<g>
								<g>
									<g>
										<g>
											<g>
												<g>
													<g>
														<g>
															<g>
																<g>
																	<g>
																		<g>
																			<g>
																				<g>
																					<g>
																						<g>
																							<path fill="#263238" d="M285.2,279.6c0-0.1,1.1-0.3,3-0.5c0.5,0,0.9-0.1,1-0.4c0.1-0.3-0.1-0.8-0.3-1.4
																								c-0.4-1.1-0.9-2.3-1.3-3.6c-1.8-5.1-3.2-9.3-2.9-9.4c0.2-0.1,1.9,4,3.7,9.1c0.4,1.3,0.9,2.5,1.3,3.6
																								c0.2,0.5,0.5,1.1,0.2,1.8c-0.1,0.3-0.5,0.6-0.8,0.7c-0.3,0.1-0.6,0.1-0.8,0.1
																								C286.3,279.7,285.2,279.7,285.2,279.6z"/>
																						</g>
																					</g>
																				</g>
																			</g>
																		</g>
																	</g>
																</g>
															</g>
														</g>
													</g>
												</g>
											</g>
										</g>
									</g>
								</g>
							</g>
						</g>
					</g>
				</g>
			</g>
			<g>
				<g>
					<g>
						<g>
							<g>
								<g>
									<g>
										<g>
											<g>
												<g>
													<g>
														<g>
															<g>
																<g>
																	<g>
																		<g>
																			<path fill="#E0E0E0" d="M277.9,258.9c-0.2,0.5-2,0.1-4.2,0.1c-2.2,0-4,0.4-4.2,0c-0.1-0.2,0.2-0.7,1-1.1
																				c0.7-0.4,1.9-0.8,3.2-0.8c1.3,0,2.5,0.3,3.2,0.7C277.6,258.3,278,258.7,277.9,258.9z"/>
																		</g>
																	</g>
																</g>
															</g>
														</g>
													</g>
												</g>
											</g>
										</g>
									</g>
								</g>
							</g>
						</g>
					</g>
				</g>
			</g>
			<g>
				<g>
					<g>
						<g>
							<g>
								<g>
									<g>
										<g>
											<g>
												<g>
													<g>
														<g>
															<g>
																<g>
																	<g>
																		<g>
																			<path fill="#E0E0E0" d="M296.6,259.5c-0.3,0.4-1.6,0-3.1-0.1c-1.5-0.1-2.8,0.2-3.1-0.2c-0.1-0.2,0.1-0.6,0.7-1
																				c0.6-0.4,1.5-0.7,2.5-0.6c1,0.1,1.9,0.4,2.5,0.9C296.6,258.9,296.8,259.3,296.6,259.5z"/>
																		</g>
																	</g>
																</g>
															</g>
														</g>
													</g>
												</g>
											</g>
										</g>
									</g>
								</g>
							</g>
						</g>
					</g>
				</g>
			</g>
			<g>
				<g>
					<path fill="#E0E0E0" d="M286.9,237.7c-4.5-2-9.1-1.2-14-0.6c-3.9,0.4-7.2,1.5-10.4,3.7c-5,3.4-7.7,9.1-8.1,15.2
						c-0.5,6.1,0.4,11.4,1.8,17.3l0,0c-0.3,1.5-0.7,3-0.2,4.5c0.5,1.4,2.1,2.6,3.5,2.1c1.6-0.7,1.8-2.9,1.7-4.7
						c-0.3-6,0-11.9,0.6-17.9c0.4-4.4,3.1-9.8,6.7-11.8c8-4.4,13.9,0,16.5,1.1c4.4-3.5,9.1-1.2,11.6,2
						C295.7,243.8,291.4,239.7,286.9,237.7z"/>
				</g>
			</g>
			<g>
				<g>
					<g>
						<g>
							<path fill="#F5F5F5" d="M251.6,251.9c0,0.3,0.5,0.6,1.6,0.8c1,0.2,2.6,0.1,4.4-0.5c1.8-0.6,3.8-1.6,5.7-2.8
								c2-1.3,3.9-2.7,6-3.9c2.1-1.2,4.1-1.9,6-1.9c1.9-0.1,3.7,0.3,5.1,0.9c2.9,1.1,4.3,2.7,4.8,2.3c0.1-0.1,0.2-0.3,0.1-0.6
								c0-0.3-0.2-0.7-0.4-1.1c-0.5-0.9-1.5-2.2-3.1-3.2c-1.6-1.1-3.8-2-6.5-2.1c-1.3-0.1-2.8,0.1-4.1,0.5c-1.4,0.4-2.7,1-3.9,1.7
								c-2.5,1.4-4.4,3.1-6.2,4.4c-1.7,1.4-3.3,2.5-4.6,3.3c-1.4,0.8-2.5,1.3-3.4,1.6C252.1,251.3,251.6,251.6,251.6,251.9z"/>
						</g>
					</g>
				</g>
			</g>
			<g>
				<g>
					<g>
						<g>
							<path fill="#FFFFFF" d="M251.3,259.1c0,0,0.6,0.3,1.7,0.4c1.1,0.1,2.6,0,4.1-0.5c1.6-0.5,2.8-1.3,3.6-2
								c0.8-0.7,1.2-1.2,1.1-1.3c-0.1,0-0.5,0.4-1.3,1c-0.8,0.6-2.1,1.4-3.6,1.8c-1.5,0.5-2.9,0.6-4,0.6
								C251.9,259.1,251.3,259,251.3,259.1z"/>
						</g>
					</g>
				</g>
			</g>
			<g>
				<g>
					<g>
						<g>
							<path fill="#FFFFFF" d="M247.4,267.9c0,0,0.2,0,0.7-0.2c0.4-0.1,1-0.3,1.8-0.6c1.5-0.6,3.4-1.6,5.4-3c2-1.4,3.6-2.9,4.6-4.1
								c0.5-0.6,0.9-1.1,1.2-1.5c0.3-0.4,0.4-0.6,0.4-0.6c-0.1,0-0.7,0.7-1.8,1.8c-1.1,1.1-2.7,2.6-4.6,4c-2,1.4-3.9,2.4-5.3,3.1
								C248.3,267.5,247.4,267.8,247.4,267.9z"/>
						</g>
					</g>
				</g>
			</g>
			<g>
				<g>
					<g>
						<g>
							<path fill="#FFFFFF" d="M278.1,235.9c0,0.1,0.7,0.3,1.9,0.9c1.2,0.5,2.8,1.4,4,2.9c1.3,1.5,1.7,3.3,1.7,4.5
								c0,1.3-0.4,2-0.3,2c0,0,0.1-0.2,0.3-0.5c0.1-0.3,0.3-0.9,0.3-1.5c0.1-1.3-0.3-3.2-1.7-4.8c-1.3-1.6-3-2.4-4.2-2.9
								C278.9,236,278.1,235.9,278.1,235.9z"/>
						</g>
					</g>
				</g>
			</g>
			<g>
				<g>
					<g>
						<g>
							<path fill="#FFFFFF" d="M282.9,233.1c0,0.1,0.7,0.5,1.6,1.4c0.9,0.9,1.9,2.5,2.4,4.4c0.4,1.9,0.1,3.8-0.3,5
								c-0.4,1.2-0.9,1.9-0.8,2c0,0,0.2-0.1,0.4-0.4c0.2-0.3,0.5-0.8,0.7-1.4c0.5-1.2,0.9-3.1,0.4-5.2c-0.5-2-1.6-3.6-2.6-4.5
								c-0.5-0.5-0.9-0.8-1.3-1C283.1,233.2,282.9,233.1,282.9,233.1z"/>
						</g>
					</g>
				</g>
			</g>
			<g>
				<g>
					<g>
						<g>
							<path fill="#FFFFFF" d="M256,275.2c0,0.1,1.5,0,2.9-1c1.5-1,2.2-2.2,2.1-2.3c-0.1-0.1-0.9,1-2.3,1.9
								C257.4,274.8,256,275.1,256,275.2z"/>
						</g>
					</g>
				</g>
			</g>
			<g>
				<g>
					<g>
						<g>
							<path fill="#FFFFFF" d="M255.5,276.9c0,0.1,1.6,0.2,3.3-0.7c1.7-0.9,2.5-2.3,2.4-2.3c-0.1-0.1-1,1.1-2.6,1.9
								C257,276.7,255.5,276.7,255.5,276.9z"/>
						</g>
					</g>
				</g>
			</g>
			<g>
				<g>
					<g>
						<g>
							<path fill="#FFFFFF" d="M297.4,250.6c0,0,0.5,0,1.2-0.4c0.7-0.4,1.5-1.1,2.1-2.1c0.6-1,0.8-2.1,0.8-2.9
								c0-0.8-0.2-1.2-0.2-1.2c-0.1,0,0,0.5-0.1,1.2c-0.1,0.7-0.3,1.7-0.9,2.7c-0.6,1-1.3,1.7-1.9,2.1
								C297.9,250.4,297.4,250.5,297.4,250.6z"/>
						</g>
					</g>
				</g>
			</g>
			<g>
				<g>
					<g>
						<g>
							<path fill="#FFFFFF" d="M296.1,248c0.1,0.1,1.1-1,2-2.6c0.9-1.6,1.3-3,1.2-3.1c-0.1,0-0.7,1.3-1.5,2.8
								C296.9,246.8,296,248,296.1,248z"/>
						</g>
					</g>
				</g>
			</g>
			<g>
				<g>
					<g>
						<path fill="#EB996E" d="M267.4,266c0,0.1,0.5,0.5,1.3,0.8c0.8,0.3,1.5,0.4,1.5,0.3c0-0.1-0.6-0.3-1.4-0.6
							C268.1,266.2,267.5,265.9,267.4,266z"/>
					</g>
				</g>
			</g>
			<g>
				<g>
					<g>
						<path fill="#EB996E" d="M266.2,267.8c0,0.1,0.8,0.1,1.8,0.1c1-0.1,1.8-0.2,1.8-0.3c0-0.1-0.8-0.1-1.8-0.1
							C266.9,267.6,266.1,267.7,266.2,267.8z"/>
					</g>
				</g>
			</g>
			<g>
				<g>
					<g>
						<path fill="#EB996E" d="M297.2,269.1c0,0.1,0.4,0.2,1,0.2c0.5,0,1-0.1,1-0.2c0-0.1-0.4-0.2-1-0.2
							C297.7,268.9,297.2,269,297.2,269.1z"/>
					</g>
				</g>
			</g>
			<g>
				<g>
					<g>
						<path fill="#EB996E" d="M297.7,268.2c0,0.1,0.4-0.1,0.8-0.3c0.4-0.3,0.7-0.5,0.7-0.6c0-0.1-0.4,0.1-0.8,0.3
							C297.9,267.8,297.6,268.1,297.7,268.2z"/>
					</g>
				</g>
			</g>
			<g>
				<g>
					<g>
						<path fill="#EB996E" d="M278.8,251.9c0,0.1,0.6,0.2,1.5,0.5c0.9,0.3,2.1,1,3.4,1.5c1.4,0.6,2.7,0.9,3.7,0.9
							c0.5,0,0.9-0.1,1.2-0.1c0.3-0.1,0.4-0.1,0.4-0.2c0-0.1-0.6,0.1-1.5,0.1c-1,0-2.2-0.4-3.6-0.9c-1.3-0.6-2.6-1.2-3.5-1.5
							C279.4,251.9,278.8,251.9,278.8,251.9z"/>
					</g>
				</g>
			</g>
			<g>
				<g>
					<g>
						<path fill="#EB996E" d="M281.2,251.6c0,0.1,1.5,0.9,3.6,1.2c2.1,0.3,3.9-0.1,3.8-0.1c0-0.1-1.7,0.1-3.8-0.2
							C282.8,252.2,281.3,251.5,281.2,251.6z"/>
					</g>
				</g>
			</g>
			<g>
				<g>
					<g>
						<path fill="#EB996E" d="M277.5,281.3c0.1,0,0.4-0.7,1.1-1c0.8-0.3,1.5,0,1.5-0.1c0,0-0.1-0.2-0.4-0.3c-0.3-0.1-0.7-0.1-1.2,0
							c-0.5,0.2-0.8,0.5-0.9,0.8C277.4,281.1,277.4,281.3,277.5,281.3z"/>
					</g>
				</g>
			</g>
			<g>
				<g>
					<g>
						<path fill="#EB996E" d="M275.9,280.9c0.1,0,0.3-0.8,1-1.2c0.8-0.5,1.5-0.4,1.6-0.4c0,0-0.2-0.1-0.5-0.2
							c-0.3,0-0.8,0.1-1.2,0.3c-0.4,0.3-0.7,0.7-0.8,1C275.9,280.7,275.9,280.9,275.9,280.9z"/>
					</g>
				</g>
			</g>
			<g>
				<g>
					<g>
						<path fill="#EB996E" d="M273.2,311.2c0,0,0.1,0,0.3-0.1c0.2-0.1,0.4-0.4,0.6-0.8c0.2-0.4,0.2-0.9,0.3-1.4
							c0.1-0.5,0.2-1.1,0.7-1.4c0.5-0.3,1.1-0.4,1.6-0.7c0.5-0.4,0.7-0.8,0.9-1.2c0.2-0.9-0.1-1.4-0.1-1.3c-0.1,0,0.1,0.5-0.1,1.3
							c-0.1,0.4-0.4,0.8-0.8,1.1c-0.4,0.3-1,0.4-1.6,0.7c-0.3,0.2-0.5,0.5-0.6,0.8c-0.1,0.3-0.2,0.6-0.2,0.9c-0.1,0.6-0.1,1-0.2,1.4
							C273.8,310.9,273.2,311.1,273.2,311.2z"/>
					</g>
				</g>
			</g>
			<g>
				<g>
					<g>
						<path fill="#EB996E" d="M270.5,310.3c0,0,0.6-0.1,1.2-0.8c0.3-0.3,0.6-0.8,0.7-1.4c0.1-0.3,0.1-0.6,0.1-0.9
							c0-0.3-0.1-0.6-0.1-0.9c-0.1-0.6,0.4-1.1,0.8-1.4c0.2-0.2,0.4-0.4,0.6-0.6c0.2-0.2,0.3-0.4,0.4-0.7c0.1-0.4,0.1-0.8-0.1-1
							c-0.2-0.2-0.3-0.2-0.3-0.2c0,0,0.1,0.1,0.2,0.3c0.1,0.2,0.1,0.5,0,0.9c-0.1,0.2-0.2,0.4-0.3,0.5c-0.2,0.2-0.4,0.3-0.6,0.5
							c-0.2,0.2-0.4,0.4-0.6,0.7c-0.2,0.3-0.3,0.6-0.3,1c0,0.3,0.1,0.7,0.1,1c0,0.3,0,0.6,0,0.8c-0.1,0.5-0.3,1-0.6,1.3
							C271,310,270.5,310.2,270.5,310.3z"/>
					</g>
				</g>
			</g>
			<g>
				<g>
					<g>
						<path fill="#EB996E" d="M286.7,284.1c-2.3,7.4-8.8,0.8-4.8-2.2c1.8,0.3,3.4,1.3,5.1,1.9"/>
					</g>
				</g>
				<g>
					<g>
						<g>
							<path fill="#263238" d="M285,287.5c-2.4,0.6-5.6-2.2-3.6-5.1c1-0.3,3,1.2,4,1.3c2.9,1.1,3,0.8,0.2-0.5
								c-1.3-0.4-2.9-1.7-4.3-1.7C278.1,284,281.9,289.5,285,287.5z"/>
						</g>
					</g>
				</g>
			</g>
		</g>
		<g>
			<g>
				<g>
					<path fill="#FFBE9D" d="M187.6,339.9l-0.2-4c0-0.3-0.1-0.6-0.2-0.8l-2.1-5.1c0,0,8.6-9.9,9.1-11.1c0.5-1.2,0.2-2.5-2-1.6
						c-2.1,0.9-9.1,7.3-9.1,7.3l-2.7-4.8c0,0,6.3-6.7,6.9-7.4c0.6-0.7,0.3-4.5-2.1-3.2c-2.3,1.2-8.2,6.6-8.2,6.6l-1.6-1.6l4.6-7.1
						c0,0,1.6-2.5-0.4-3.2c-2-0.7-2.9,0.7-4.3,2.3c-1.4,1.6-3.6,5.1-3.6,5.1l-1.4-0.1l-2.1-0.5l0.2-2.5c0,0,2.9-4.1,3.3-5.1
						c0.4-0.8,1.6-2.5,0-3.2c-1.6-0.7-2.7-0.9-3.5,0.6c-0.5,0.9-1.8,1.9-1.8,1.9s-1.8-1.6-2.9-2c-1.3-0.4-2.8,1.1-1.3,5.1
						c0.2,0.7,1.7,8.2,1.7,8.2l0.4,3.9l1.7,3.5l7.7,13.4l0,5.3"/>
				</g>
				<g>
					<g>
						<path fill="#EB996E" d="M174,323.6c0.1,0,0.2-0.8,0.5-2l0.6-2.2c0.1-0.4,0.2-0.9,0.3-1.3c0-0.1,0-0.1,0-0.2c0,0,0-0.1,0-0.2
							c0,0,0,0,0-0.1c0-0.1-0.1-0.2-0.3-0.2c-0.2,0-0.2,0.1-0.3,0.1l0,0l0,0.1l0,0.1l0,0.1c0,0.1,0,0,0,0.2l0,0
							c0,0.1,0.1,0.2,0.2,0.3c0.2,0.1,0.3,0,0.3,0l0,0c0,0,0.1-0.1,0.1-0.1c0-0.1,0,0,0-0.1l0-0.1l0.1-0.2c0.1-0.2,0.2-0.4,0.4-0.6
							c1.2-1.5,2.7-2.6,3.6-3.4c1-0.8,1.6-1.4,1.5-1.5c-0.1-0.1-0.8,0.3-1.8,1.1c-1.1,0.8-2.6,1.8-3.9,3.4c-0.2,0.2-0.3,0.4-0.4,0.7
							l-0.1,0.2l0,0c-0.1,0,0.2,0.1,0.2,0.1c0.1,0,0.1,0.1,0.1,0.1c0.5,0.1,0.3,0.1,0.3,0l0-0.1l0,0c0.1,0-0.2-0.1-0.2-0.1
							c-0.1,0-0.1-0.1-0.1-0.1c-0.1,0-0.1,0-0.3,0c-0.2,0,0,0-0.1,0l0,0l0,0.1c-0.1,0.4-0.2,0.9-0.3,1.3c-0.2,0.8-0.4,1.6-0.5,2.3
							C173.8,322.8,173.9,323.6,174,323.6z"/>
					</g>
				</g>
				<g>
					<g>
						<path fill="#EB996E" d="M169.8,318.9c0.2,0-0.3-2.1,0.6-4.5c0.9-2.4,2.4-3.9,2.2-4.1c-0.1-0.1-1.9,1.3-2.9,3.8
							c-0.5,1.3-0.5,2.6-0.4,3.4C169.4,318.4,169.7,318.9,169.8,318.9z"/>
					</g>
				</g>
				<g>
					<g>
						<path fill="#EB996E" d="M182.3,333.3c0.2,0.1,1.8-1.5,3.6-3.6c1.8-2.1,3.2-3.9,3-4.1c-0.2-0.1-1.8,1.5-3.6,3.6
							C183.5,331.3,182.1,333.2,182.3,333.3z"/>
					</g>
				</g>
				<g>
					<g>
						<path fill="#EB996E" d="M179.1,328.8c0.2,0.1,1.8-1.2,3.6-3c1.8-1.8,3.2-3.4,3.1-3.5c-0.1-0.2-1.7,1.2-3.6,3
							C180.3,327.1,179,328.7,179.1,328.8z"/>
					</g>
				</g>
				<path fill="#EB996E" d="M187.9,336.2c0-1-0.3-1.9-0.7-2.7c-0.4-0.7-0.8-1.3-1.1-1.9c-0.6-1-0.7-1.8-0.8-1.8
					c-0.1,0-0.2,0.8,0.3,2c0.5,1.2,1.5,2.5,1.5,4.3c0.1,1.8-0.2,2.8-0.9,3.7h0.8C187.9,339,188,338.2,187.9,336.2z"/>
				<g>
					<g>
						<path fill="#EB996E" d="M168.5,312.4c0.2,0,0.3-1.6,0.4-3.9l-0.1,0.2c0.4-0.5,0.7-1.1,1.1-1.7c0.8-1.4,1.4-2.8,1.9-3.7
							c0.5-0.9,0.8-1.5,0.7-1.6c-0.1-0.1-0.6,0.4-1.2,1.3c-0.6,0.9-1.3,2.2-2.1,3.6c-0.3,0.6-0.7,1.2-1,1.7l-0.1,0.1l0,0.1
							C168.2,310.8,168.4,312.4,168.5,312.4z"/>
					</g>
				</g>
				<g>
					<g>
						<path fill="#EB996E" d="M164.7,318.1c0.1,0-0.1-0.6-0.2-1.6c-0.1-1-0.1-2.4-0.1-4.1l0,0l0,0c-0.2-1.2-0.5-2.5-0.7-3.9
							c0-0.1,0-0.2-0.1-0.3l0,0c-0.1-1.1,0.8-2.1,1.4-3c0.6-0.8,1.2-1.7,1.7-2.4c1-1.4,1.5-2.3,1.4-2.3c-0.1-0.1-0.8,0.7-1.8,2
							c-0.6,0.7-1.2,1.5-1.8,2.3c-0.3,0.4-0.7,0.9-1.1,1.5c-0.3,0.5-0.6,1.2-0.6,2l0,0l0,0c0,0.1,0,0.2,0.1,0.3
							c0.3,1.4,0.5,2.6,0.8,3.9l0-0.1c0,1.7,0.1,3.1,0.3,4.2C164.3,317.6,164.7,318.2,164.7,318.1z"/>
					</g>
				</g>
			</g>
			<g>
				<g>
					<path fill="#EB996E" d="M179.9,325.9c0.2-0.1-0.1-1.4,0.1-3.1c0.2-1.7,0.7-2.9,0.5-3c-0.2-0.1-1.1,1.1-1.3,2.9
						C179.1,324.5,179.7,325.9,179.9,325.9z"/>
				</g>
			</g>
			<g>
				<g>
					<path fill="#EB996E" d="M174.2,320.6c0.2,0,0.3-1.5,0.7-3.2c0.5-1.7,1.2-3,1-3.1c-0.2-0.1-1.2,1.1-1.7,2.9
						C173.6,319.1,174,320.6,174.2,320.6z"/>
				</g>
			</g>
		</g>
		<g>
			<path fill="#263238" d="M205.4,339.9c0,0,12.6-19,15.1-20.4c2.5-1.4,28.3-10.4,28.3-10.4l11-7.6l-1.8,15.6l3.5,22.7"/>
			<g>
				<polygon fill="#F5F5F5" points="288.3,303.7 277.9,314.1 259.5,302.5 254.2,312.9 258.5,339.9 298.2,339.7 298.4,321.7 				"/>
			</g>
			<path fill="#FF725E" d="M287,339.9c-1-3.8-5.3-14-5.3-14l2.6-4.1c-0.2-5.7-5.1-6.2-7.7-5.8c-2.6,0.3-3.2,5.8-3.2,5.8l3.3,4.8
				l-4,13.3L287,339.9z"/>
			<path fill="#263238" d="M334.7,339.9l-4.5-12.9c-0.7-2.5-2.6-4.4-5-5.3l-25.7-9.2l-11.5-9.2l6.2,14.2l0,22.6L334.7,339.9z"/>
			<g>
				<path fill="#455A64" d="M228.6,339.7c-0.1,0-0.2-1-0.5-2.6c-0.3-1.6-0.8-3.7-1.6-6c-0.8-2.3-1.8-4.3-2.6-5.7
					c-0.8-1.4-1.3-2.2-1.3-2.3c0,0,0.7,0.7,1.6,2.1c0.9,1.4,1.9,3.4,2.8,5.7c0.8,2.3,1.3,4.5,1.5,6.1
					C228.6,338.7,228.6,339.7,228.6,339.7z"/>
			</g>
			<g>
				<path fill="#455A64" d="M320.5,338.7c-0.1,0,0.1-0.9,0.4-2.3c0.3-1.4,0.8-3.4,1.6-5.5c0.7-2.1,1.6-4,2.3-5.3
					c0.7-1.3,1.3-2,1.4-1.9c0.1,0-0.4,0.8-1.1,2.1c-0.7,1.3-1.4,3.2-2.2,5.3C321.5,335.2,320.7,338.7,320.5,338.7z"/>
			</g>
			<g>
				<path fill="#455A64" d="M304.8,339.4c0,0,0.1-0.6,0.4-1.6c0.4-1.1,0.8-2.6,1.4-4.3l0,0.2c-0.6-0.7-1.2-1.5-1.9-2.3
					c-0.3-0.4-0.7-0.8-1.1-1.3c-0.2-0.2-0.4-0.4-0.6-0.7l-0.3-0.3l-0.2-0.2l-0.2-0.2l0.1-0.2c1-1.2,2.4-2,3.9-2.6
					c0.5-0.2,1-0.4,1.5-0.5l-0.2,0.4c-2.2-3.8-4.5-7-6-9.4c-0.8-1.2-1.3-2.2-1.7-2.9c-0.4-0.7-0.6-1.1-0.5-1.1c0,0,0.3,0.3,0.7,1
					c0.5,0.7,1.1,1.7,1.8,2.8c1.6,2.3,3.9,5.5,6.1,9.3l0.2,0.3l-0.3,0.1c-0.5,0.1-1,0.3-1.5,0.5c-1.5,0.6-2.8,1.4-3.7,2.4l-0.1-0.4
					c0.2,0.1,0.3,0.3,0.4,0.4l0.3,0.3c0.2,0.2,0.4,0.5,0.6,0.7c0.4,0.4,0.7,0.9,1,1.3c0.7,0.9,1.3,1.6,1.8,2.4l0.1,0.1l0,0.1
					c-0.6,1.7-1.1,3.1-1.5,4.2C305.1,338.9,304.9,339.5,304.8,339.4z"/>
			</g>
			<g>
				<path fill="#455A64" d="M245.4,339.9c0,0-0.1-0.4-0.4-1.2c-0.2-0.9-0.6-1.9-0.9-3.2c-0.4-1.4-0.8-3-1.1-5
					c-0.1-0.5-0.1-1,0.1-1.6c0.1-0.5,0.4-1,0.6-1.5c0.6-0.9,1.5-1.8,2.8-2l0,0.5c-0.8-0.1-1.7-0.2-2.6-0.3c-0.6-0.1-1.3-0.1-1.9-0.2
					c-0.1,0-0.2-0.1-0.2-0.3c0,0,0-0.1,0-0.1c1.9-4.3,3.6-8.1,4.8-10.8c0.6-1.3,1.1-2.4,1.5-3.2c0.4-0.7,0.6-1.2,0.6-1.1
					c0,0-0.1,0.4-0.4,1.2c-0.4,0.9-0.8,1.9-1.3,3.3c-1.2,2.8-2.8,6.6-4.7,10.9l-0.2-0.4c0.6,0.1,1.2,0.1,1.9,0.2
					c0.9,0.1,1.7,0.2,2.6,0.3c0.1,0,0.2,0.1,0.2,0.3c0,0.1-0.1,0.2-0.2,0.2c-1,0.1-1.9,0.9-2.4,1.7c-0.3,0.4-0.5,0.9-0.6,1.3
					c-0.1,0.5-0.1,0.9-0.1,1.4c0.2,1.9,0.7,3.6,1,4.9C245.1,338.2,245.5,339.9,245.4,339.9z"/>
			</g>
		</g>
	</g>
</g>
<g id="Character_3">
	<g>
		<g>
			<path fill="#FFFFFF" d="M546.6,163.6c0,0.2-5.4,0.5-12.1,0.8c-6.7,0.3-12.1,0.4-12.1,0.2c0-0.2,5.4-0.5,12.1-0.8
				C541.1,163.5,546.5,163.4,546.6,163.6z"/>
		</g>
		<g>
			<g>
				<path fill="#263238" d="M487.6,120.6c1.1-5.8,2.4-11.8,6-16.5c3.6-4.7,9.9-7.8,15.5-5.9l6.9,4c-1.4,16-4.7,31.9-9.7,47.2
					c-0.5,1.5-1,3-2.1,4.2c-2.2,2.3-5.9,14.7-9,14.3c-3.8-0.4-9.6,4.9-11.2,1.4c-0.8-1.7,0.6-22.5,0.7-24.3
					C485.1,136.8,486.1,128.7,487.6,120.6z"/>
				<path fill="#FFBE9D" d="M526.3,110.3l-21.2-7c-6.9-1.2-12.1,7-13,13.9c-1,7.7-2,17.1-1.5,22.9c1,11.7,9.8,13.8,9.8,13.8
					c0,0-1,3.6-0.7,8.8c0.5,8,5.7,10,9.9,10.3l0,0c6.6,0.7,13.6-1.4,14.4-8l5.8-50.3C529.9,112.6,528.4,110.7,526.3,110.3z"/>
				<path fill="#263238" d="M496.2,126.2c-0.1,0.8,0.5,1.5,1.3,1.6c0.8,0.1,1.5-0.4,1.6-1.2c0.1-0.8-0.5-1.5-1.3-1.6
					C497,124.9,496.2,125.4,496.2,126.2z"/>
				<path fill="#263238" d="M494.4,123.1c0.2,0.2,1.4-0.5,3-0.4c1.6,0.1,2.7,1,2.9,0.8c0.1-0.1-0.1-0.4-0.6-0.9
					c-0.5-0.4-1.3-0.8-2.3-0.9c-1-0.1-1.9,0.2-2.4,0.6C494.5,122.7,494.3,123,494.4,123.1z"/>
				<path fill="#263238" d="M511,127.6c-0.1,0.8,0.5,1.5,1.3,1.6c0.8,0.1,1.5-0.4,1.6-1.2c0.1-0.8-0.5-1.5-1.3-1.6
					C511.9,126.3,511.1,126.8,511,127.6z"/>
				<path fill="#263238" d="M510.3,124.8c0.2,0.2,1.4-0.5,3-0.4c1.6,0.1,2.7,1,2.9,0.8c0.1-0.1-0.1-0.4-0.6-0.9
					c-0.5-0.4-1.3-0.8-2.3-0.9c-1-0.1-1.9,0.2-2.4,0.6C510.4,124.3,510.3,124.7,510.3,124.8z"/>
				<path fill="#263238" d="M503.4,135.1c0-0.1-1-0.3-2.6-0.7c-0.4-0.1-0.8-0.2-0.8-0.5c-0.1-0.3,0.1-0.7,0.4-1.2c0.5-1,0.9-2,1.4-3
					c2-4.3,3.5-7.9,3.3-7.9c-0.2-0.1-1.9,3.3-3.9,7.6c-0.5,1.1-0.9,2.1-1.4,3c-0.2,0.5-0.5,1-0.3,1.6c0.1,0.3,0.4,0.6,0.6,0.6
					c0.3,0.1,0.5,0.1,0.7,0.1C502.4,135.1,503.4,135.2,503.4,135.1z"/>
				<path fill="#EB996E" d="M500.3,153.9c0,0,8.4,1.1,16.5-3c0,0-5.2,7.8-16.7,5.9L500.3,153.9z"/>
				<path fill="#263238" d="M509.6,119.8c0.1,0.4,1.7,0.4,3.6,0.7c1.9,0.3,3.3,1,3.6,0.6c0.1-0.2-0.1-0.6-0.7-1.1
					c-0.6-0.5-1.5-0.9-2.6-1.1c-1.1-0.2-2.2-0.1-2.9,0.1C509.9,119.3,509.5,119.6,509.6,119.8z"/>
				<path fill="#263238" d="M494.3,118.4c0.3,0.4,1.7,0.1,3.4,0.2c1.6,0.1,3,0.5,3.4,0.1c0.2-0.2,0-0.6-0.6-0.9
					c-0.6-0.4-1.6-0.7-2.7-0.8c-1.1-0.1-2.1,0.2-2.7,0.5C494.3,117.8,494.1,118.2,494.3,118.4z"/>
				<path fill="#263238" d="M503,106.1c0.8,1.5,2.1,2.7,3.3,3.9c1.9,1.9,3.9,3.8,5.8,5.8c1.4,1.4,2.8,2.7,4.3,3.9
					c1.4,1.1,2.9,1.9,4.3,2.8c1.5,0.9,2.3,3.3,3.9,4.3c0.3,0.2,1.5,0.1,1.8,0.3c-0.1,2.6-0.1,10.8-0.1,14.1c0,5.2-1.9,19-1.9,19
					l4.4,0c3.5-0.5,8.3,7,10.2,4c2-3.3-0.4-17.3-0.5-20c-0.3-7.8-1.9-15.8-2.3-22.6c-0.2-2.7-0.4-5.5-1.3-8
					c-1.4-3.6-4.2-6.5-7.2-8.9c-3.5-2.8-7.4-5.1-11.7-6.1c-4.3-1-9.1-0.5-12.8,2c-0.6,0.4-1.1,0.9-1.3,1.5
					C501.4,103.9,502.1,104.6,503,106.1z M526.6,127.2C526.7,127.5,526.6,128.3,526.6,127.2L526.6,127.2z"/>
				<g>
					<g>
						<g>
							<g>
								<g>
									<g>
										<g>
											<g>
												<g>
													<g>
														<g>
															<g>
																<g>
																	<path fill="#FFBE9D" d="M525.8,130.3c0.3-2.5,3.1-3.9,5.1-2.5c1.1,0.8,1.9,2.2,1.6,4.8c-0.8,7-7.6,4.7-7.6,4.5
																		C525,137,525.4,133.2,525.8,130.3z"/>
																</g>
															</g>
														</g>
													</g>
												</g>
											</g>
										</g>
									</g>
								</g>
							</g>
						</g>
					</g>
				</g>
				<g>
					<g>
						<g>
							<g>
								<g>
									<g>
										<g>
											<g>
												<g>
													<g>
														<g>
															<g>
																<g>
																	<g>
																		<path fill="#EB996E" d="M527.4,134.8c0,0,0.1,0.1,0.3,0.2c0.2,0.1,0.5,0.2,0.9,0.1c0.8-0.2,1.5-1.3,1.7-2.5
																			c0.1-0.6,0-1.2-0.1-1.8c-0.2-0.5-0.4-0.9-0.8-1c-0.4-0.1-0.6,0.1-0.8,0.3c-0.1,0.2-0.1,0.3-0.1,0.3
																			c0,0-0.1-0.1,0-0.4c0-0.1,0.1-0.3,0.3-0.4c0.2-0.1,0.4-0.2,0.7-0.1c0.5,0.1,1,0.6,1.1,1.2c0.2,0.6,0.3,1.3,0.2,2
																			c-0.2,1.4-1.1,2.6-2.1,2.8c-0.5,0.1-0.9-0.1-1.1-0.3C527.4,134.9,527.4,134.8,527.4,134.8z"/>
																	</g>
																</g>
															</g>
														</g>
													</g>
												</g>
											</g>
										</g>
									</g>
								</g>
							</g>
						</g>
					</g>
				</g>
				<path fill="#E0E0E0" d="M529.5,137.9c-0.1,0.8-0.7,1.3-1.5,1.3c-0.8-0.1-1.3-0.7-1.3-1.5c0.1-0.8,0.7-1.3,1.5-1.3
					C529,136.5,529.6,137.2,529.5,137.9z"/>
				<path fill="#EB996E" d="M507.6,138.3c0.6,0.9,0.7,2,0.3,2.9c-0.4,0.9-1.2,1.7-2.2,1.9c-0.4,0.1-0.8,0.1-1.2-0.1
					c-0.7-0.3-0.9-1.1-1.2-1.7c-0.2-0.6-0.4-1.1-0.5-1.7c-0.1-0.2-0.1-0.4,0-0.6c0.1-0.2,0.3-0.2,0.6-0.3c1.4-0.2,2.8-0.5,4.2-0.7"
					/>
				<path fill="#263238" d="M504.6,142.9c0,0,0.7,0.2,1.9-0.1c0.6-0.2,1.3-0.5,1.7-1.2c0.2-0.3,0.4-0.8,0.3-1.3
					c0-0.4-0.1-0.9-0.2-1.3c-0.2-0.4-0.4-0.8-0.7-1.1l-0.1-0.1l-0.1,0c-2.8,0.8-5,1.1-4.9,1.2c0,0.1,2.2,0,5.1-0.8l-0.2-0.1
					c0.2,0.3,0.5,0.6,0.6,1c0.3,0.8,0.3,1.6,0,2.2c-0.4,0.6-0.9,0.9-1.5,1.1C505.3,142.8,504.6,142.8,504.6,142.9z"/>
				<path fill="#263238" d="M519.6,110.3c4.4,3.1,8.1,7.1,10.9,11.7l-3.8,6.4c-6.4-0.6-7.1-1.3-11.6-5.8
					c-4.5-4.6-13.4-13.7-13.9-20.1C507.2,104.2,514.5,106.7,519.6,110.3z"/>
				<path fill="#455A64" d="M529.7,160c0,0,0.1-0.2,0.3-0.7c0.2-0.4,0.5-1.1,0.9-1.9c0.8-1.6,1.8-4.1,2.7-7.2
					c0.9-3.1,1.7-6.9,1.8-11.2c0.1-2.1,0.1-4.4-0.4-6.7c-0.4-2.3-1.3-4.6-3.1-6.3c-1.7-1.7-3.9-2.8-6-3.9c-2.1-1-4.1-2.1-5.9-3.4
					c-3.6-2.5-6.4-5.2-8.5-7.7c-2.1-2.5-3.6-4.7-4.5-6.3c-0.5-0.8-0.8-1.4-1-1.8c-0.2-0.4-0.3-0.7-0.3-0.7c0,0,0.2,0.2,0.4,0.6
					c0.3,0.4,0.6,1,1.1,1.8c1,1.5,2.5,3.7,4.7,6.1c2.1,2.4,5,5.1,8.5,7.5c1.8,1.2,3.7,2.3,5.9,3.3c2.1,1,4.3,2.1,6.2,4
					c1.8,1.8,2.8,4.2,3.2,6.6c0.4,2.3,0.4,4.6,0.3,6.8c-0.2,4.3-1,8.2-2,11.3c-1,3.1-2.1,5.5-2.9,7.2c-0.4,0.8-0.8,1.4-1,1.8
					C529.8,159.8,529.7,160,529.7,160z"/>
				<path fill="#455A64" d="M534.6,123.7c-0.1,0.1-0.1-2.2-2.2-4.8c-1-1.3-2.5-2.7-4.4-3.8c-1.9-1.2-4.1-2.2-6.4-3.2
					c-4.7-2.1-8.6-4.9-11.1-7.1c-1.3-1.1-2.2-2.1-2.8-2.8c-0.6-0.7-0.9-1.1-0.9-1.1c0,0,0.4,0.3,1.1,1c0.7,0.7,1.7,1.6,2.9,2.7
					c2.5,2.2,6.4,4.8,11,6.9c2.3,1.1,4.6,2.1,6.5,3.3c1.9,1.2,3.4,2.6,4.4,4c1,1.4,1.5,2.7,1.7,3.6c0.1,0.5,0.2,0.8,0.2,1.1
					C534.6,123.5,534.6,123.7,534.6,123.7z"/>
				<path fill="#455A64" d="M485.6,167.3c0,0,0-0.3,0-0.8c0-0.6,0-1.3,0.1-2.2c0.1-1.9,0.2-4.6,0.4-7.9c0.4-6.7,1-15.9,2.2-26
					c0.6-5.1,1.4-9.9,2.6-14.1c1.2-4.2,3.1-7.7,5-10.1c1.9-2.4,3.9-3.7,5.3-4.3c0.7-0.3,1.3-0.5,1.7-0.6c0.4-0.1,0.6-0.1,0.6-0.1
					c0,0.1-0.8,0.2-2.2,0.9c-1.4,0.7-3.3,2.1-5.1,4.4c-1.9,2.4-3.6,5.8-4.8,10c-1.2,4.2-1.9,9-2.6,14c-1.2,10.1-1.9,19.3-2.4,26
					c-0.2,3.3-0.4,5.9-0.6,7.9c-0.1,0.9-0.1,1.6-0.2,2.1C485.7,167,485.6,167.3,485.6,167.3z"/>
			</g>
			<g>
				<g>
					<path fill="#455A64" d="M468.4,188.5c0,0,1.3-10,6.1-15.1c4.8-5,25.1-11.3,25.1-11.3s0.8,7.2,5.7,8.9
						c5.1,1.8,10.9,1.1,14.7-3.2c3.6-4.2,4.7-9.7,4.7-9.7s24.2,2.2,28.1,8.9c3.9,6.6,9,32.3,9,32.3l-22.6,4.8l1.4,20.8l-55.5,0.3
						l-1.7-18.4l-16.3,2.3L468.4,188.5z"/>
				</g>
				<g>
					<path fill="#263238" d="M534.7,205.6c0,0-0.1-0.4-0.1-1c0-0.6,0-1.6,0-2.7c0-2.3,0-5.5,0.1-9c0.1-3.5,0.2-6.7,0.3-9
						c0-1.1,0.1-2.1,0.1-2.7c0-0.6,0.1-1,0.1-1s0.1,0.4,0.1,1c0,0.6,0,1.6,0,2.7c0,2.3,0,5.5-0.1,9c-0.1,3.5-0.2,6.7-0.3,9
						c0,1.1-0.1,2.1-0.1,2.7C534.8,205.2,534.8,205.6,534.7,205.6z"/>
				</g>
				<g>
					<path fill="#263238" d="M477.8,187.4c0.1,0,1.5,4.4,3.1,10c1.6,5.6,2.8,10.1,2.6,10.2c-0.1,0-1.5-4.4-3.1-10
						C478.9,192,477.7,187.4,477.8,187.4z"/>
				</g>
				<g>
					<path fill="#263238" d="M550.3,165.4c0,0.1-1.1,0.3-2.7,0.9c-1.6,0.6-3.8,1.8-5.9,3.5c-2,1.8-3.5,3.8-4.3,5.3
						c-0.9,1.5-1.2,2.6-1.3,2.6c0,0,0-0.3,0.2-0.8c0.1-0.5,0.4-1.2,0.8-2c0.8-1.6,2.2-3.7,4.3-5.5c2.1-1.8,4.4-2.9,6.1-3.5
						c0.9-0.3,1.6-0.4,2.1-0.5C550,165.4,550.2,165.4,550.3,165.4z"/>
				</g>
				<g>
					<path fill="#263238" d="M474.1,175.5c0.1,0,0.6,1.4,1.1,3.1c0.4,1.8,0.7,3.2,0.6,3.2c-0.1,0-0.6-1.4-1.1-3.1
						C474.2,177,474,175.5,474.1,175.5z"/>
				</g>
				<g>
					<path fill="#FFFFFF" d="M535.3,180.2c0,0.2-12.8,1.9-28.7,3.9c-15.9,2-28.7,3.4-28.7,3.3c0-0.2,12.8-1.9,28.7-3.9
						C522.4,181.5,535.2,180.1,535.3,180.2z"/>
				</g>
				<g>
					<path fill="#FFFFFF" d="M556.9,179.5c0,0.2-4.7,1.5-10.5,2.9c-5.9,1.5-10.7,2.5-10.7,2.3c0-0.2,4.7-1.5,10.6-2.9
						C552,180.4,556.8,179.3,556.9,179.5z"/>
				</g>
				<g>
					<path fill="#FFFFFF" d="M560.5,193.5c0,0.2-5.5,1.5-12.3,2.9c-6.9,1.5-12.4,2.5-12.5,2.4c0-0.2,5.5-1.5,12.3-2.9
						C554.9,194.4,560.5,193.3,560.5,193.5z"/>
				</g>
				<g>
					<path fill="#FFFFFF" d="M499.4,167c0,0.2-5.3,1.7-11.9,3.4c-6.6,1.7-12,2.9-12,2.8c0-0.2,5.3-1.7,11.9-3.4
						C494,168.1,499.4,166.9,499.4,167z"/>
				</g>
				<g>
					<path fill="#FFFFFF" d="M534.4,201.4c0,0.2-11.5,1-25.7,1.8c-14.2,0.8-25.7,1.4-25.7,1.2c0-0.2,11.5-1,25.7-1.8
						C522.8,201.8,534.3,201.2,534.4,201.4z"/>
				</g>
				<g>
					<path fill="#FFFFFF" d="M470.2,194.2c0-0.2,2-0.5,4.5-0.8c2.5-0.3,4.5-0.6,4.6-0.4c0,0.2-2,0.7-4.5,1
						C472.3,194.4,470.2,194.4,470.2,194.2z"/>
				</g>
				<g>
					<path fill="#FFFFFF" d="M533.5,218.4c0,0-0.6,0.1-1.7,0.2c-1.2,0.1-2.8,0.2-4.8,0.3c-4.1,0.3-9.7,0.6-15.8,1
						c-6.1,0.5-11.6,0.9-15.7,1.2c-1.9,0.2-3.5,0.3-4.8,0.4c-1.1,0.1-1.8,0.1-1.8,0.1c0,0,0.6-0.1,1.7-0.3c1.1-0.2,2.7-0.3,4.8-0.6
						c4-0.4,9.6-1,15.7-1.4c6.2-0.4,11.7-0.7,15.8-0.9c2-0.1,3.7-0.1,4.8-0.1C532.9,218.4,533.5,218.4,533.5,218.4z"/>
				</g>
			</g>
		</g>
		<g>
			<path fill="#FFBE9D" d="M483.4,206.9l-7.7,1l-7.3-18.8l-11.8,4.8c0,0,6.5,22,9.1,30.9h24L483.4,206.9z"/>
			<path fill="#EB996E" d="M484.2,221.5c-1.5-1.7-2.9-3.3-4-4.9c-1.1-1.6-1.9-3.1-2.6-4.4c-0.6-1.3-1.1-2.4-1.4-3.2
				c-0.3-0.8-0.4-1.2-0.5-1.2c0,0,0.1,0.5,0.3,1.2c0.2,0.8,0.6,1.9,1.2,3.3c0.6,1.3,1.4,2.9,2.5,4.6c1.1,1.6,2.5,3.3,4,5
				c1.5,1.7,1.4,1.5,2.4,3.1l0.6,0C485.8,223.3,485.7,223.2,484.2,221.5z"/>
			<g>
				<g>
					<g>
						<g>
							<g>
								<path fill="#FFBE9D" d="M468.4,189c0,0,0-8.2-0.7-10.6l-5.5-12.8c0,0-1.6-0.8-1.9,1.6c-0.3,2.6,0.9,5.1,0.9,5.1l0.2,3.4
									l-2.4-1.9l-4.5-8.5c0,0-3.1-6.2-3.9-5.2c-0.8,1-0.5,3,0.8,5.6c1.3,2.7,3.1,6.1,3.1,6.1s0.5,1.1-1.1-0.5
									c-1.6-1.6-5.1-9.1-5.8-10.1c-0.7-0.9-1.7-3.7-3.3-3.1c-1.6,0.6,0.4,3.9,0.4,3.9l5,11.2c0,0-2.9-4.2-3.4-5
									c-0.5-0.7-1.7-3.1-2.7-4.4c-1-1.2-2-1.7-2.7-1.4c-1.2,0.5-0.9,1.7-0.9,1.7l5.3,9.3c0,0,2.7,4.2,2.7,4.5
									c0,0.3-2.3-1.4-2.3-1.4l-2.2-2.9c0,0-2.4-4.3-3.7-4c-1.3,0.2-1,1.2-1,1.2l4.5,7.8l6.5,8.4l7,6.9l4-1.3L468.4,189z"/>
							</g>
						</g>
					</g>
				</g>
			</g>
			<g>
				<g>
					<path fill="#EB996E" d="M455.6,187.6c0.1,0,0.2-1,0.4-2.6c0.3-1.5,0.8-3.8,2.7-5.3c0.8-0.7,1.8-1,2.7-1l0.3,0l0-0.4
						c-0.1-1.6,0-3.1-0.1-4.1c0-1-0.1-1.6-0.2-1.6c-0.1,0-0.1,0.6-0.2,1.6c0,1-0.2,2.4-0.1,4.2l0.3-0.4c-1.1,0-2.2,0.4-3.1,1.1
						c-1,0.8-1.7,1.9-2.1,2.9c-0.4,1-0.5,2-0.6,2.9C455.4,186.6,455.5,187.6,455.6,187.6z"/>
				</g>
			</g>
		</g>
		<path fill="#FFBE9D" d="M536.9,204.6l-1.9,20.1h19.2c0.8-2.9,3.6-24.6,3.6-24.6L536.9,204.6z"/>
	</g>
</g>
<g id="Character_1">
	<g>
		<g>
			<g>
				<g>
					<g>
						<g>
							<g>
								<g>
									<g>
										<g>
											<g>
												<g>
													<g>
														<g>
															<g>
																<g>
																	<g>
																		<g>
																			<g>
																				<g>
																					<path fill="#936760" d="M256.5,132.9l-0.6,44.6c-0.1,7.6,1.3,18.7,13.3,18.3l0,0c10.4-1.1,13.1-11,13.2-18
																						c0-3.4,0.1-6.2,0.1-6.5c0,0,11.4-0.9,12.3-12.1c0.5-5.4,0.5-16.7,0.4-26.8c-0.1-10.9-8.6-20-19.5-20.7
																						l-1.1-0.1C263,111.3,256.3,121.2,256.5,132.9z"/>
																				</g>
																			</g>
																		</g>
																	</g>
																</g>
															</g>
														</g>
													</g>
												</g>
											</g>
										</g>
									</g>
								</g>
							</g>
						</g>
						<g>
							<g>
								<g>
									<g>
										<g>
											<g>
												<g>
													<g>
														<g>
															<g>
																<g>
																	<g>
																		<g>
																			<g>
																				<g>
																					<path fill="#6F4C47" d="M282.5,171.3c0,0-7.1-0.1-14.3-5.4c0,0,3,8.5,14.2,8.3L282.5,171.3z"/>
																				</g>
																			</g>
																		</g>
																	</g>
																</g>
															</g>
														</g>
													</g>
												</g>
											</g>
										</g>
									</g>
								</g>
							</g>
						</g>
					</g>
				</g>
			</g>
			<g>
				<g>
					<g>
						<g>
							<g>
								<g>
									<g>
										<g>
											<g>
												<g>
													<g>
														<g>
															<g>
																<g>
																	<g>
																		<g>
																			<g>
																				<g>
																					<g>
																						<g>
																							<g>
																								<g>
																									<path fill="#263238" d="M276.1,136.9c-0.2,0.2-1.5-0.8-3.4-0.9c-1.9-0.1-3.3,0.9-3.5,0.6
																										c-0.1-0.1,0.1-0.5,0.7-1c0.6-0.4,1.6-0.8,2.8-0.8c1.2,0,2.1,0.5,2.7,1C276,136.4,276.2,136.8,276.1,136.9z
																										"/>
																								</g>
																							</g>
																						</g>
																					</g>
																				</g>
																			</g>
																		</g>
																	</g>
																</g>
															</g>
														</g>
													</g>
												</g>
											</g>
										</g>
									</g>
								</g>
								<g>
									<g>
										<g>
											<g>
												<g>
													<g>
														<g>
															<g>
																<g>
																	<g>
																		<g>
																			<g>
																				<g>
																					<g>
																						<g>
																							<g>
																								<path fill="#263238" d="M274.2,140.8c0,0.8-0.7,1.4-1.6,1.4c-0.8,0-1.5-0.7-1.5-1.5c0-0.8,0.7-1.4,1.6-1.4
																									C273.6,139.3,274.2,140,274.2,140.8z"/>
																							</g>
																						</g>
																					</g>
																				</g>
																			</g>
																		</g>
																	</g>
																</g>
															</g>
														</g>
													</g>
												</g>
											</g>
										</g>
									</g>
								</g>
								<g>
									<g>
										<g>
											<g>
												<g>
													<g>
														<g>
															<g>
																<g>
																	<g>
																		<g>
																			<g>
																				<g>
																					<g>
																						<g>
																							<g>
																								<path fill="#263238" d="M280.8,150c0-0.1,1.1-0.2,2.8-0.3c0.4,0,0.9-0.1,1-0.4c0.1-0.3,0-0.8-0.2-1.3
																									c-0.3-1.1-0.7-2.2-1.1-3.5c-1.5-4.9-2.5-8.9-2.3-9c0.2-0.1,1.5,3.9,3,8.8c0.3,1.2,0.7,2.4,1,3.5
																									c0.1,0.5,0.4,1.1,0.1,1.7c-0.1,0.3-0.5,0.5-0.8,0.6c-0.3,0.1-0.5,0.1-0.8,0
																									C281.9,150.1,280.8,150.1,280.8,150z"/>
																							</g>
																						</g>
																					</g>
																				</g>
																			</g>
																		</g>
																	</g>
																</g>
															</g>
														</g>
													</g>
												</g>
											</g>
										</g>
									</g>
								</g>
							</g>
						</g>
					</g>
					<g>
						<g>
							<g>
								<g>
									<g>
										<g>
											<g>
												<g>
													<g>
														<g>
															<g>
																<g>
																	<g>
																		<g>
																			<g>
																				<path fill="#263238" d="M275.3,129.8c-0.2,0.4-1.7,0.1-3.5,0.2c-1.8,0.1-3.3,0.5-3.5,0.1
																					c-0.1-0.2,0.2-0.6,0.8-0.9c0.6-0.4,1.6-0.7,2.6-0.7c1.1,0,2,0.2,2.7,0.5C275.1,129.3,275.4,129.6,275.3,129.8z"
																					/>
																			</g>
																		</g>
																	</g>
																</g>
															</g>
														</g>
													</g>
												</g>
											</g>
										</g>
									</g>
								</g>
							</g>
						</g>
					</g>
					<g>
						<g>
							<g>
								<g>
									<g>
										<g>
											<g>
												<g>
													<g>
														<g>
															<g>
																<g>
																	<g>
																		<g>
																			<g>
																				<path fill="#263238" d="M293.2,133.3c-0.2,0.3-1.7,0-3.4-0.1c-1.8-0.1-3.3,0.2-3.4-0.2
																					c-0.1-0.2,0.2-0.5,0.8-0.7c0.6-0.3,1.6-0.5,2.6-0.4c1.1,0,2,0.3,2.6,0.6C293,132.8,293.2,133.1,293.2,133.3z"/>
																			</g>
																		</g>
																	</g>
																</g>
															</g>
														</g>
													</g>
												</g>
											</g>
										</g>
									</g>
								</g>
							</g>
						</g>
					</g>
				</g>
			</g>
			<g>
				<g>
					<g>
						<g>
							<g>
								<g>
									<g>
										<g>
											<g>
												<g>
													<g>
														<g>
															<g>
																<path fill="#936760" d="M256.8,141.3c-0.2-0.1-7.5-2.8-7.9,4.8c-0.3,7.7,7.5,6.4,7.5,6.2
																	C256.4,152.1,256.8,141.3,256.8,141.3z"/>
															</g>
														</g>
													</g>
												</g>
											</g>
										</g>
									</g>
								</g>
							</g>
						</g>
					</g>
				</g>
			</g>
			<g>
				<g>
					<g>
						<g>
							<g>
								<g>
									<g>
										<g>
											<g>
												<g>
													<g>
														<g>
															<g>
																<g>
																	<path fill="#6F4C47" d="M254.2,149.3c0,0-0.1,0.1-0.4,0.2c-0.2,0.1-0.6,0.1-1,0c-0.8-0.3-1.4-1.7-1.4-3
																		c0-0.7,0.2-1.4,0.5-1.9c0.3-0.6,0.6-0.9,1.1-1c0.4-0.1,0.7,0.2,0.8,0.4c0.1,0.2,0,0.4,0.1,0.4c0,0,0.2-0.1,0.1-0.4
																		c0-0.2-0.1-0.3-0.3-0.5c-0.2-0.2-0.4-0.2-0.7-0.2c-0.6,0-1.2,0.5-1.4,1.1c-0.3,0.6-0.5,1.3-0.6,2.1
																		c0,1.6,0.7,3,1.8,3.4c0.5,0.2,1,0,1.2-0.2C254.2,149.5,254.2,149.3,254.2,149.3z"/>
																</g>
															</g>
														</g>
													</g>
												</g>
											</g>
										</g>
									</g>
								</g>
							</g>
						</g>
					</g>
				</g>
			</g>
			<g>
				<path fill="#263238" d="M279,155.3c0.1-0.2-1.4-0.6-2.5-2.1c-0.5-0.7-0.8-1.5-1.1-2c-0.2-0.6-0.4-0.9-0.5-0.9
					c-0.1,0-0.1,0.4,0.1,1c0.1,0.6,0.4,1.5,1,2.3c0.6,0.8,1.4,1.3,2,1.5C278.6,155.3,279,155.4,279,155.3z"/>
			</g>
			<g>
				<path fill="#263238" d="M310.2,122.2c-0.1-0.5-0.5-0.8-0.9-1.1c-0.9-0.5-1.9-0.4-2.9-0.5c-3,0-5.9-1-8.4-2.6
					c-1.2-1.7-2.5-3.3-3.9-4.8c-3.4-3.5-6.2-5.9-9.1-7.1c-3.7-1.5-10-2.1-13.9-1.1c-3.9,1-7.4,4.2-8,8.2c-2.2-1.9-5.5-1.8-8.1-0.8
					l-0.1,0c-3,1.1-4.7,4.2-5.5,7.2c-0.9,3-1.2,6.3-2.9,9c-0.3,0.6-0.7,1.2-0.4,1.8c0.2,0.5,0.8,0.6,1.3,0.6c0.5-0.1,1-0.4,1.4-0.6
					c-0.3,0.8-0.7,1.6-1,2.4c1.1,0.2,2.2,0.1,3.2-0.2c0.6,2.8,1.4,6.1,2.1,8c1.2,0,2.4,0.1,3.1,0.8c1,0.9,1.5,2.7,3.2,2
					c0.9-0.3,1.7-2.2,2-3.1c2-5.9,2.6-12.3,1.9-18.5c1.2-1.3,2.7-2.4,4.3-3.1l-0.1,0.1c3.1-1.1,6.7-2.2,9.7-0.7
					c2.3,1.1,3.7,3.5,5.4,5.4c3.3,3.6,7.5,5.6,12.4,5.8c0.2,3.2,0.1,7.6,0.3,10.8l2.7-5.1l0,0c0.2-0.4,0.4-0.7,0.6-1.1l0.1-0.1l0,0
					c0.3-0.6,0.5-1.2,0.9-1.8c0,0,0,0,0,0c1.7,1.5,4.2-0.8,2.9-2.6c-0.3-0.4-0.6-0.7-1-1c0.8,0.7,1.9,1.1,3,0.8
					c1-0.3,1.8-1.4,1.7-2.4c-0.1-0.7-0.6-1.4-1.2-1.7c1.4,0.1,2.8-0.2,4-0.9C309.7,124,310.5,123.2,310.2,122.2z"/>
			</g>
			<g>
				<path fill="#455A64" d="M266.7,114.7c0,0-0.5,0.3-1.1,1c-0.6,0.7-1.4,2-1.7,3.7c-0.2,0.9-0.3,1.8-0.3,2.9c0,1,0.1,2.1,0.2,3.3
					c0.1,1.2,0.2,2.4,0.1,3.7c0,0.6-0.1,1.3-0.3,1.9c-0.1,0.6-0.3,1.3-0.8,1.9c-0.4,0.4-1,0.6-1.6,0.5c-0.6-0.1-1.1-0.4-1.4-0.8
					c-0.7-0.8-0.9-1.9-1.1-2.9l0.2,0c-0.4,0.8-0.8,1.7-1.4,2.4c-0.6,0.7-1.4,1.1-2.2,1.2c-0.4,0-0.8,0-1.2-0.2
					c-0.4-0.2-0.6-0.5-0.8-0.8c-0.2-0.3-0.3-0.7-0.2-1c0-0.3,0.1-0.6,0.4-0.9l0.1,0.1c-0.9,1-1.8,1.5-2.4,1.8
					c-0.3,0.1-0.6,0.2-0.7,0.3c-0.2,0.1-0.3,0.1-0.3,0.1c0,0,0.1,0,0.3-0.1c0.2-0.1,0.4-0.2,0.7-0.3c0.6-0.3,1.5-0.9,2.3-1.8
					l0.1,0.1c-0.4,0.4-0.4,1.1-0.1,1.7c0.2,0.3,0.4,0.5,0.7,0.7c0.3,0.2,0.7,0.2,1,0.2c0.7-0.1,1.5-0.5,2-1.1
					c0.6-0.6,0.9-1.5,1.3-2.3l0.2-0.4l0.1,0.4c0.2,0.9,0.4,2,1,2.7c0.3,0.4,0.8,0.6,1.3,0.7c0.5,0.1,1-0.1,1.3-0.5
					c0.4-0.5,0.6-1.1,0.7-1.8c0.1-0.6,0.2-1.3,0.3-1.9c0.1-1.3,0-2.5-0.1-3.6c-0.1-1.2-0.1-2.3-0.1-3.3c0-1,0.1-2,0.3-2.9
					c0.4-1.7,1.1-3,1.8-3.8C266.2,114.9,266.7,114.7,266.7,114.7z"/>
			</g>
			<g>
				<path fill="#455A64" d="M301.4,125.6C301.4,125.6,301.4,125.6,301.4,125.6c-0.2,0.1-0.3,0.2-0.4,0.3c-0.1,0.1-0.3,0.2-0.5,0.3
					c-0.2,0.1-0.4,0.2-0.7,0.4c-1,0.5-2.7,1-4.8,0.9c-2.1-0.1-4.6-0.8-6.8-2.5c-2.2-1.6-4.2-4-5.8-6.7c-0.8-1.4-1.5-2.8-2.2-4
					c-0.7-1.3-1.5-2.5-2.5-3.4c-1-0.9-2.1-1.6-3.2-2c-0.6-0.2-1.2-0.2-1.7-0.2c-0.6,0-1.1,0.1-1.6,0.3c-1,0.3-1.7,0.9-2.3,1.4
					c-0.6,0.6-1,1.1-1.3,1.6c-0.5,1-0.5,1.7-0.6,1.7c0,0,0,0,0-0.1c0-0.1,0-0.2,0.1-0.3c0.1-0.3,0.2-0.7,0.4-1.3
					c0.3-0.5,0.7-1.1,1.3-1.7c0.6-0.6,1.4-1.1,2.4-1.5c0.5-0.2,1-0.3,1.6-0.3c0.6,0,1.2,0,1.8,0.2c1.2,0.3,2.4,1,3.3,2
					c1,1,1.8,2.2,2.6,3.5c0.7,1.3,1.4,2.7,2.2,4c1.6,2.7,3.5,5,5.7,6.6c2.2,1.6,4.6,2.4,6.6,2.5c2.1,0.1,3.7-0.3,4.7-0.8
					C300.9,126,301.4,125.6,301.4,125.6z"/>
			</g>
			<g>
				<path fill="#455A64" d="M302.4,120.7c0,0-0.1,0.1-0.4,0.3c-0.3,0.2-0.7,0.4-1.2,0.6c-0.5,0.2-1.2,0.4-1.9,0.6
					c-0.7,0.2-1.5,0.3-2.4,0.3c-0.9,0-1.7,0-2.4-0.2c-0.7-0.1-1.4-0.3-1.9-0.5c-0.5-0.2-1-0.4-1.2-0.5c-0.3-0.1-0.4-0.2-0.4-0.3
					c0,0,0.6,0.3,1.7,0.6c0.5,0.2,1.2,0.3,1.9,0.4c0.7,0.1,1.5,0.2,2.4,0.1c0.8,0,1.6-0.1,2.4-0.3c0.7-0.2,1.4-0.4,1.9-0.6
					C301.8,121,302.4,120.6,302.4,120.7z"/>
			</g>
			<g>
				<g>
					<g>
						<g>
							<g>
								<g>
									<g>
										<g>
											<g>
												<path fill="#263238" d="M293.2,137.6c-0.2,0.2-1.5-0.8-3.4-0.9c-1.9-0.1-3.3,0.9-3.5,0.6c-0.1-0.1,0.1-0.5,0.7-1
													c0.6-0.4,1.6-0.8,2.8-0.8c1.2,0,2.1,0.5,2.7,1C293.2,137.1,293.4,137.5,293.2,137.6z"/>
											</g>
										</g>
									</g>
								</g>
							</g>
						</g>
					</g>
				</g>
			</g>
			<g>
				<g>
					<g>
						<g>
							<g>
								<g>
									<g>
										<g>
											<path fill="#263238" d="M290.6,141.2c0,0.8-0.7,1.4-1.6,1.4c-0.8,0-1.5-0.7-1.5-1.5c0-0.8,0.7-1.4,1.6-1.4
												C290,139.7,290.6,140.4,290.6,141.2z"/>
										</g>
									</g>
								</g>
							</g>
						</g>
					</g>
				</g>
			</g>
		</g>
		<path fill="#FF725E" d="M256.2,173.8l-13.4,5.6c-8.3,3.5-15.6,9.2-20.6,16.7c-1.2,1.8-5,15.5-5.3,16.6c-1.1,4.5-2.9,12.2-2.9,12.2
			h106.8c0,0-3.2-30.5-10.8-36.4c-4.9-3.8-27.5-14.3-27.5-14.3s-2.2,5.6-9.2,5.8C262.6,180.3,256.2,173.8,256.2,173.8z"/>
	</g>
</g>
</svg>
